<?xml version="1.0" encoding="UTF-8" standalone="no"?><!DOCTYPE svg PUBLIC "-//W3C//DTD SVG 1.1//EN" "http://www.w3.org/Graphics/SVG/1.1/DTD/svg11.dtd"><svg width="100%" height="100%" viewBox="0 0 1480 1480" version="1.1" xmlns="http://www.w3.org/2000/svg" xmlns:xlink="http://www.w3.org/1999/xlink" xml:space="preserve" xmlns:serif="http://www.serif.com/" style="fill-rule:evenodd;clip-rule:evenodd;stroke-linejoin:round;stroke-miterlimit:1.41421;"><g><circle cx="731.475" cy="731.475" r="731.475" style="fill:none;"/><g><path d="M640.417,713.821c-8.992,-8.979 -23.559,-8.979 -32.534,0c-8.979,8.991 -8.979,23.542 0,32.533l71.563,71.546c4.479,4.496 10.362,6.754 16.25,6.754c5.883,0 11.787,-2.258 16.267,-6.754l143.108,-143.108c8.991,-8.975 8.991,-23.542 0,-32.517c-8.979,-8.992 -23.542,-8.992 -32.521,0l-126.854,126.842l-55.279,-55.296Z" style="fill:#82c547;fill-rule:nonzero;"/><path d="M1022.68,446.283c-66.287,0 -126.683,-36.42 -157.621,-95.066c-3.979,-7.554 -11.808,-12.275 -20.333,-12.275l-226.475,0c-8.525,0 -16.354,4.721 -20.346,12.275c-30.921,58.646 -91.321,95.066 -157.763,95.066c-12.691,0 -22.983,10.296 -22.983,23.005l0,234.22c0,94.15 29.409,184.063 85.067,260.017c55.662,75.938 132.537,131.075 222.329,159.425c2.254,0.713 4.6,1.058 6.925,1.058c2.346,0 4.671,-0.345 6.929,-1.058c89.792,-28.35 166.667,-83.487 222.325,-159.425c55.659,-75.954 85.088,-165.871 85.088,-260.017l0,-234.22c0,-12.709 -10.434,-23.005 -23.142,-23.005Zm-22.867,257.225c0,170.209 -107.516,319.321 -268.333,373.313c-160.8,-53.992 -268.333,-203.104 -268.333,-373.313l0,-212.379c69.621,-7.066 131.875,-46.129 168.491,-106.183l199.705,0.004c36.595,60.017 98.82,99.079 168.47,106.163l0,212.395Z" style="fill:#82c547;fill-rule:nonzero;"/><path d="M813.663,439.392c-4.375,-5.346 -10.905,-8.454 -17.813,-8.454l-128.75,0c-6.892,0 -13.438,3.108 -17.796,8.454c-32.533,39.791 -75.521,69.308 -124.337,85.366c-9.446,3.088 -15.817,11.909 -15.817,21.838l0,156.912c0,140.85 83.783,266.805 213.471,320.884c2.85,1.179 5.85,1.771 8.854,1.771c3.021,0 6.025,-0.592 8.854,-1.771c129.688,-54.079 213.492,-180.034 213.492,-320.884l0,-156.896c0,-9.929 -6.392,-18.75 -15.817,-21.854c-48.821,-16.041 -91.825,-45.575 -124.342,-85.366Zm94.15,264.116c0,118.992 -68.887,225.709 -176.337,274.567c-107.429,-48.837 -176.338,-155.575 -176.338,-274.567l0,-140.729c47.205,-18.35 89.188,-47.708 122.625,-85.833l107.43,0c33.454,38.125 75.416,67.5 122.62,85.85l0,140.712Z" style="fill:#82c547;fill-rule:nonzero;"/></g></g></svg>