<?xml version="1.0" encoding="UTF-8" standalone="no"?><!DOCTYPE svg PUBLIC "-//W3C//DTD SVG 1.1//EN" "http://www.w3.org/Graphics/SVG/1.1/DTD/svg11.dtd"><svg width="100%" height="100%" viewBox="0 0 233 233" version="1.1" xmlns="http://www.w3.org/2000/svg" xmlns:xlink="http://www.w3.org/1999/xlink" xml:space="preserve" xmlns:serif="http://www.serif.com/" style="fill-rule:evenodd;clip-rule:evenodd;stroke-linejoin:round;stroke-miterlimit:1.41421;"><g><path d="M94.59,75.183c-1.942,-1.255 -4.274,-1.634 -6.462,-1.118l38.446,38.446l12.461,-12.46l-44.445,-24.868Z" style="fill:#82c547;fill-rule:nonzero;"/><path d="M83.356,77.19c-1.072,1.426 -1.689,3.176 -1.689,5.028l0,68.484c0,1.852 0.617,3.602 1.689,5.028l39.269,-39.27l-39.269,-39.27Z" style="fill:#82c547;fill-rule:nonzero;"/><path d="M155.297,109.15l-11.199,-6.266l-13.576,13.576l13.577,13.576l11.2,-6.266c2.683,-1.503 4.284,-4.236 4.284,-7.31c0,-3.074 -1.601,-5.806 -4.286,-7.31Z" style="fill:#82c547;fill-rule:nonzero;"/><path d="M126.574,120.408l-38.444,38.444c0.63,0.149 1.272,0.228 1.913,0.228c1.585,0 3.165,-0.45 4.547,-1.343l44.445,-24.868l-12.461,-12.461Z" style="fill:#82c547;fill-rule:nonzero;"/></g><path d="M117.211,0.002l0.752,0.008l0.75,0.011l0.749,0.017l0.748,0.021l0.747,0.026l0.746,0.031l0.744,0.036l0.744,0.04l0.742,0.044l0.741,0.05l0.739,0.054l0.738,0.058l0.737,0.064l0.736,0.067l0.734,0.073l0.733,0.077l0.732,0.081l0.73,0.086l0.729,0.09l0.728,0.095l0.726,0.1l0.725,0.104l0.723,0.108l0.722,0.113l0.72,0.117l0.719,0.121l0.717,0.126l0.716,0.131l0.714,0.134l0.713,0.139l0.711,0.144l0.71,0.147l0.708,0.152l0.707,0.157l0.705,0.16l0.703,0.165l0.701,0.169l0.7,0.174l0.699,0.177l0.696,0.182l0.695,0.186l0.694,0.19l0.691,0.194l0.69,0.198l0.688,0.203l0.686,0.207l0.684,0.21l0.683,0.215l0.681,0.219l0.679,0.223l0.677,0.227l0.676,0.231l0.673,0.235l0.672,0.239l0.669,0.243l0.668,0.248l0.666,0.251l0.664,0.254l0.662,0.259l0.66,0.263l0.658,0.267l0.656,0.27l0.654,0.275l0.652,0.278l0.65,0.282l0.648,0.286l0.646,0.29l0.643,0.294l0.642,0.297l0.64,0.301l0.637,0.305l0.635,0.309l0.633,0.313l0.631,0.316l0.629,0.319l0.627,0.324l0.624,0.327l0.622,0.331l0.62,0.335l0.618,0.338l0.615,0.341l0.613,0.346l0.611,0.349l0.609,0.352l0.606,0.356l0.604,0.36l0.601,0.363l0.599,0.367l0.597,0.37l0.594,0.374l0.592,0.377l0.59,0.38l0.587,0.384l0.584,0.388l0.582,0.391l0.58,0.394l0.577,0.398l0.575,0.401l0.572,0.404l0.569,0.408l0.567,0.411l0.565,0.414l0.562,0.418l0.559,0.421l0.557,0.424l0.554,0.427l0.551,0.431l0.549,0.434l0.546,0.437l0.543,0.441l0.541,0.443l0.538,0.447l0.535,0.45l0.532,0.453l0.53,0.456l0.527,0.459l0.524,0.463l0.522,0.465l0.518,0.469l0.516,0.471l0.513,0.475l0.51,0.478l0.507,0.48l0.504,0.484l0.502,0.487l0.498,0.489l0.496,0.493l0.492,0.496l0.49,0.498l0.487,0.501l0.483,0.505l0.481,0.507l0.478,0.51l0.474,0.513l0.472,0.515l0.468,0.519l0.466,0.521l0.462,0.525l0.459,0.527l0.457,0.529l0.453,0.533l0.45,0.535l0.446,0.538l0.444,0.541l0.44,0.543l0.437,0.546l0.434,0.549l0.431,0.551l0.428,0.554l0.424,0.557l0.421,0.559l0.418,0.562l0.414,0.564l0.411,0.567l0.408,0.57l0.404,0.572l0.401,0.575l0.398,0.577l0.394,0.579l0.391,0.582l0.387,0.585l0.384,0.587l0.381,0.59l0.377,0.591l0.374,0.595l0.37,0.596l0.367,0.6l0.363,0.601l0.359,0.604l0.356,0.606l0.353,0.609l0.349,0.61l0.345,0.613l0.342,0.616l0.338,0.617l0.335,0.62l0.33,0.623l0.328,0.624l0.323,0.626l0.32,0.629l0.316,0.631l0.313,0.633l0.308,0.636l0.305,0.637l0.301,0.64l0.298,0.641l0.293,0.644l0.29,0.646l0.286,0.648l0.282,0.65l0.279,0.652l0.274,0.654l0.271,0.656l0.266,0.658l0.263,0.66l0.259,0.662l0.255,0.664l0.251,0.666l0.247,0.667l0.243,0.67l0.239,0.672l0.235,0.673l0.231,0.675l0.227,0.678l0.223,0.679l0.219,0.681l0.215,0.682l0.211,0.685l0.207,0.686l0.202,0.688l0.199,0.69l0.194,0.691l0.19,0.693l0.186,0.695l0.182,0.697l0.177,0.698l0.173,0.7l0.169,0.702l0.165,0.703l0.161,0.705l0.156,0.707l0.152,0.708l0.148,0.709l0.143,0.712l0.139,0.712l0.135,0.715l0.13,0.715l0.126,0.718l0.122,0.719l0.117,0.72l0.113,0.722l0.108,0.723l0.104,0.725l0.099,0.726l0.095,0.727l0.091,0.729l0.086,0.731l0.081,0.731l0.077,0.733l0.072,0.735l0.068,0.735l0.063,0.737l0.059,0.738l0.054,0.74l0.049,0.741l0.045,0.742l0.04,0.743l0.035,0.745l0.031,0.745l0.026,0.747l0.022,0.748l0.016,0.75l0.012,0.75l0.007,0.752l0.003,0.757l-0.003,0.753l-0.007,0.752l-0.012,0.75l-0.016,0.749l-0.022,0.748l-0.026,0.747l-0.031,0.746l-0.035,0.745l-0.04,0.743l-0.045,0.742l-0.049,0.741l-0.054,0.739l-0.059,0.739l-0.063,0.737l-0.068,0.735l-0.072,0.735l-0.077,0.733l-0.081,0.731l-0.086,0.731l-0.091,0.728l-0.095,0.728l-0.099,0.726l-0.104,0.725l-0.108,0.723l-0.113,0.722l-0.117,0.72l-0.122,0.719l-0.126,0.717l-0.13,0.716l-0.135,0.715l-0.139,0.712l-0.143,0.712l-0.148,0.709l-0.152,0.708l-0.156,0.707l-0.161,0.705l-0.165,0.703l-0.169,0.702l-0.173,0.7l-0.177,0.698l-0.182,0.696l-0.186,0.695l-0.19,0.694l-0.194,0.691l-0.199,0.69l-0.202,0.688l-0.207,0.686l-0.211,0.685l-0.215,0.682l-0.219,0.681l-0.223,0.679l-0.227,0.677l-0.231,0.676l-0.235,0.673l-0.239,0.672l-0.243,0.67l-0.247,0.667l-0.251,0.666l-0.255,0.664l-0.259,0.662l-0.263,0.66l-0.266,0.658l-0.271,0.656l-0.274,0.654l-0.279,0.652l-0.282,0.65l-0.286,0.648l-0.29,0.646l-0.293,0.644l-0.298,0.641l-0.301,0.64l-0.305,0.637l-0.308,0.636l-0.313,0.633l-0.316,0.631l-0.32,0.628l-0.323,0.627l-0.328,0.624l-0.33,0.622l-0.335,0.62l-0.338,0.618l-0.342,0.615l-0.345,0.613l-0.349,0.611l-0.353,0.609l-0.356,0.606l-0.359,0.604l-0.363,0.601l-0.367,0.599l-0.37,0.597l-0.374,0.594l-0.377,0.592l-0.381,0.59l-0.384,0.587l-0.387,0.584l-0.391,0.583l-0.394,0.579l-0.398,0.577l-0.401,0.575l-0.404,0.572l-0.408,0.57l-0.411,0.567l-0.414,0.564l-0.418,0.562l-0.421,0.559l-0.424,0.557l-0.428,0.554l-0.431,0.551l-0.434,0.549l-0.437,0.546l-0.44,0.543l-0.444,0.541l-0.446,0.538l-0.45,0.535l-0.453,0.533l-0.457,0.529l-0.459,0.527l-0.462,0.524l-0.466,0.522l-0.468,0.518l-0.472,0.516l-0.474,0.513l-0.478,0.51l-0.481,0.507l-0.483,0.504l-0.487,0.502l-0.49,0.498l-0.492,0.496l-0.496,0.492l-0.498,0.49l-0.502,0.487l-0.504,0.483l-0.507,0.481l-0.51,0.478l-0.513,0.474l-0.516,0.472l-0.518,0.469l-0.522,0.465l-0.524,0.462l-0.527,0.46l-0.53,0.456l-0.532,0.453l-0.535,0.45l-0.538,0.446l-0.541,0.444l-0.543,0.44l-0.546,0.438l-0.549,0.434l-0.551,0.43l-0.554,0.428l-0.557,0.424l-0.559,0.421l-0.562,0.418l-0.565,0.414l-0.567,0.411l-0.569,0.408l-0.572,0.404l-0.575,0.401l-0.577,0.398l-0.58,0.394l-0.582,0.391l-0.584,0.388l-0.587,0.384l-0.59,0.38l-0.592,0.377l-0.594,0.374l-0.597,0.37l-0.599,0.367l-0.601,0.363l-0.604,0.36l-0.606,0.356l-0.609,0.352l-0.611,0.349l-0.613,0.345l-0.615,0.342l-0.618,0.338l-0.62,0.335l-0.622,0.331l-0.624,0.327l-0.627,0.323l-0.629,0.32l-0.631,0.316l-0.633,0.313l-0.635,0.308l-0.637,0.305l-0.64,0.302l-0.642,0.297l-0.643,0.294l-0.646,0.289l-0.648,0.286l-0.65,0.283l-0.652,0.278l-0.654,0.274l-0.656,0.271l-0.658,0.267l-0.66,0.262l-0.662,0.259l-0.664,0.255l-0.666,0.251l-0.668,0.247l-0.669,0.243l-0.672,0.239l-0.673,0.236l-0.676,0.231l-0.677,0.227l-0.679,0.223l-0.681,0.219l-0.683,0.214l-0.684,0.211l-0.686,0.207l-0.688,0.202l-0.69,0.199l-0.691,0.194l-0.694,0.19l-0.695,0.186l-0.696,0.182l-0.699,0.177l-0.7,0.174l-0.701,0.169l-0.703,0.164l-0.705,0.161l-0.707,0.156l-0.708,0.152l-0.71,0.148l-0.711,0.143l-0.713,0.139l-0.714,0.135l-0.716,0.13l-0.717,0.126l-0.719,0.122l-0.72,0.117l-0.722,0.113l-0.723,0.108l-0.725,0.104l-0.726,0.1l-0.728,0.094l-0.729,0.091l-0.73,0.086l-0.732,0.081l-0.733,0.077l-0.734,0.072l-0.736,0.068l-0.737,0.063l-0.738,0.059l-0.739,0.054l-0.741,0.049l-0.742,0.045l-0.744,0.04l-0.744,0.036l-0.746,0.03l-0.747,0.026l-0.748,0.022l-0.749,0.016l-0.75,0.012l-0.752,0.007l-0.753,0.003l-0.752,-0.003l-0.752,-0.007l-0.75,-0.012l-0.75,-0.016l-0.748,-0.022l-0.747,-0.026l-0.745,-0.03l-0.745,-0.036l-0.743,-0.04l-0.742,-0.045l-0.741,-0.049l-0.74,-0.054l-0.738,-0.059l-0.737,-0.063l-0.735,-0.068l-0.735,-0.072l-0.733,-0.077l-0.731,-0.081l-0.731,-0.086l-0.729,-0.091l-0.727,-0.094l-0.726,-0.1l-0.725,-0.104l-0.723,-0.108l-0.722,-0.113l-0.72,-0.117l-0.719,-0.122l-0.718,-0.126l-0.715,-0.13l-0.715,-0.135l-0.712,-0.139l-0.712,-0.143l-0.709,-0.148l-0.708,-0.152l-0.707,-0.156l-0.705,-0.161l-0.703,-0.164l-0.702,-0.169l-0.7,-0.174l-0.698,-0.177l-0.697,-0.182l-0.695,-0.186l-0.693,-0.19l-0.691,-0.194l-0.69,-0.199l-0.688,-0.202l-0.686,-0.207l-0.685,-0.211l-0.682,-0.214l-0.681,-0.219l-0.679,-0.223l-0.678,-0.227l-0.675,-0.231l-0.673,-0.236l-0.672,-0.239l-0.67,-0.243l-0.667,-0.247l-0.666,-0.251l-0.664,-0.255l-0.662,-0.259l-0.66,-0.262l-0.658,-0.267l-0.656,-0.271l-0.654,-0.274l-0.652,-0.278l-0.65,-0.283l-0.648,-0.286l-0.646,-0.289l-0.644,-0.294l-0.641,-0.297l-0.64,-0.302l-0.637,-0.305l-0.636,-0.308l-0.633,-0.313l-0.631,-0.316l-0.629,-0.32l-0.626,-0.323l-0.624,-0.327l-0.623,-0.331l-0.62,-0.335l-0.617,-0.338l-0.616,-0.342l-0.613,-0.345l-0.61,-0.349l-0.609,-0.352l-0.606,-0.356l-0.604,-0.36l-0.601,-0.363l-0.6,-0.367l-0.596,-0.37l-0.595,-0.374l-0.591,-0.377l-0.59,-0.38l-0.587,-0.384l-0.585,-0.388l-0.582,-0.391l-0.579,-0.394l-0.577,-0.398l-0.575,-0.401l-0.572,-0.404l-0.57,-0.408l-0.567,-0.411l-0.564,-0.414l-0.562,-0.418l-0.559,-0.421l-0.557,-0.424l-0.554,-0.428l-0.551,-0.43l-0.549,-0.434l-0.546,-0.438l-0.543,-0.44l-0.541,-0.444l-0.538,-0.446l-0.535,-0.45l-0.533,-0.453l-0.529,-0.456l-0.527,-0.46l-0.525,-0.462l-0.521,-0.465l-0.519,-0.469l-0.515,-0.472l-0.513,-0.474l-0.51,-0.478l-0.507,-0.481l-0.505,-0.483l-0.501,-0.487l-0.498,-0.49l-0.496,-0.492l-0.493,-0.496l-0.489,-0.498l-0.487,-0.502l-0.484,-0.504l-0.48,-0.507l-0.478,-0.51l-0.475,-0.513l-0.471,-0.516l-0.469,-0.518l-0.465,-0.522l-0.463,-0.524l-0.459,-0.527l-0.456,-0.529l-0.453,-0.533l-0.45,-0.535l-0.447,-0.538l-0.443,-0.541l-0.441,-0.543l-0.437,-0.546l-0.434,-0.549l-0.431,-0.551l-0.427,-0.554l-0.424,-0.557l-0.421,-0.559l-0.418,-0.562l-0.414,-0.564l-0.411,-0.567l-0.408,-0.57l-0.404,-0.572l-0.401,-0.575l-0.398,-0.577l-0.394,-0.579l-0.391,-0.583l-0.388,-0.584l-0.384,-0.587l-0.38,-0.59l-0.377,-0.592l-0.374,-0.594l-0.37,-0.597l-0.367,-0.599l-0.363,-0.601l-0.36,-0.604l-0.356,-0.606l-0.352,-0.609l-0.349,-0.611l-0.346,-0.613l-0.341,-0.615l-0.338,-0.618l-0.335,-0.62l-0.331,-0.622l-0.327,-0.624l-0.324,-0.627l-0.319,-0.628l-0.316,-0.631l-0.313,-0.633l-0.309,-0.636l-0.305,-0.637l-0.301,-0.64l-0.297,-0.641l-0.294,-0.644l-0.29,-0.646l-0.286,-0.648l-0.282,-0.65l-0.278,-0.652l-0.275,-0.654l-0.27,-0.656l-0.267,-0.658l-0.263,-0.66l-0.259,-0.662l-0.254,-0.664l-0.251,-0.666l-0.248,-0.667l-0.243,-0.67l-0.239,-0.672l-0.235,-0.673l-0.231,-0.676l-0.227,-0.677l-0.223,-0.679l-0.219,-0.681l-0.215,-0.682l-0.21,-0.685l-0.207,-0.686l-0.203,-0.688l-0.198,-0.69l-0.194,-0.691l-0.19,-0.694l-0.186,-0.695l-0.182,-0.696l-0.177,-0.698l-0.174,-0.7l-0.169,-0.702l-0.165,-0.703l-0.16,-0.705l-0.157,-0.707l-0.152,-0.708l-0.147,-0.709l-0.144,-0.712l-0.139,-0.712l-0.134,-0.715l-0.131,-0.716l-0.126,-0.717l-0.121,-0.719l-0.117,-0.72l-0.113,-0.722l-0.108,-0.723l-0.104,-0.725l-0.1,-0.726l-0.095,-0.728l-0.09,-0.728l-0.086,-0.731l-0.081,-0.731l-0.077,-0.733l-0.073,-0.735l-0.067,-0.735l-0.064,-0.737l-0.058,-0.739l-0.054,-0.739l-0.05,-0.741l-0.044,-0.742l-0.04,-0.743l-0.036,-0.745l-0.031,-0.746l-0.026,-0.747l-0.021,-0.748l-0.017,-0.749l-0.011,-0.75l-0.008,-0.752l-0.002,-0.753l0,-0.005l0.002,-0.752l0.008,-0.752l0.011,-0.75l0.017,-0.75l0.021,-0.748l0.026,-0.747l0.031,-0.745l0.036,-0.745l0.04,-0.743l0.044,-0.742l0.05,-0.741l0.054,-0.74l0.058,-0.738l0.064,-0.737l0.067,-0.735l0.073,-0.735l0.077,-0.733l0.081,-0.731l0.086,-0.731l0.09,-0.729l0.095,-0.727l0.1,-0.726l0.104,-0.725l0.108,-0.723l0.113,-0.722l0.117,-0.72l0.121,-0.719l0.126,-0.718l0.131,-0.715l0.134,-0.715l0.139,-0.712l0.144,-0.712l0.147,-0.709l0.152,-0.708l0.157,-0.707l0.16,-0.705l0.165,-0.703l0.169,-0.702l0.174,-0.7l0.177,-0.698l0.182,-0.697l0.186,-0.695l0.19,-0.693l0.194,-0.691l0.198,-0.69l0.203,-0.688l0.207,-0.686l0.21,-0.685l0.215,-0.682l0.219,-0.681l0.223,-0.679l0.227,-0.678l0.231,-0.675l0.235,-0.673l0.239,-0.672l0.243,-0.67l0.248,-0.667l0.251,-0.666l0.254,-0.664l0.259,-0.662l0.263,-0.66l0.267,-0.658l0.27,-0.656l0.275,-0.654l0.278,-0.652l0.282,-0.65l0.286,-0.648l0.29,-0.646l0.294,-0.644l0.297,-0.641l0.301,-0.64l0.305,-0.637l0.309,-0.636l0.313,-0.633l0.316,-0.631l0.319,-0.629l0.324,-0.626l0.327,-0.624l0.331,-0.623l0.335,-0.62l0.338,-0.617l0.341,-0.616l0.346,-0.613l0.349,-0.61l0.352,-0.609l0.356,-0.606l0.36,-0.604l0.363,-0.601l0.367,-0.6l0.37,-0.596l0.374,-0.595l0.377,-0.591l0.38,-0.59l0.384,-0.587l0.388,-0.585l0.391,-0.582l0.394,-0.579l0.398,-0.577l0.401,-0.575l0.404,-0.572l0.408,-0.57l0.411,-0.567l0.414,-0.564l0.418,-0.562l0.421,-0.559l0.424,-0.557l0.427,-0.554l0.431,-0.551l0.434,-0.549l0.437,-0.546l0.441,-0.543l0.443,-0.541l0.447,-0.538l0.45,-0.535l0.453,-0.533l0.456,-0.529l0.459,-0.527l0.463,-0.525l0.465,-0.521l0.469,-0.519l0.471,-0.515l0.475,-0.513l0.478,-0.51l0.48,-0.507l0.484,-0.505l0.487,-0.501l0.489,-0.498l0.493,-0.496l0.496,-0.493l0.498,-0.489l0.501,-0.487l0.505,-0.484l0.507,-0.48l0.51,-0.478l0.513,-0.475l0.515,-0.471l0.519,-0.469l0.521,-0.465l0.525,-0.463l0.527,-0.459l0.529,-0.456l0.533,-0.453l0.535,-0.45l0.538,-0.447l0.541,-0.443l0.543,-0.441l0.546,-0.437l0.549,-0.434l0.551,-0.431l0.554,-0.427l0.557,-0.424l0.559,-0.421l0.562,-0.418l0.564,-0.414l0.567,-0.411l0.57,-0.408l0.572,-0.404l0.575,-0.401l0.577,-0.398l0.579,-0.394l0.582,-0.391l0.585,-0.388l0.587,-0.384l0.59,-0.38l0.591,-0.377l0.595,-0.374l0.596,-0.37l0.6,-0.367l0.601,-0.363l0.604,-0.36l0.606,-0.356l0.609,-0.352l0.61,-0.349l0.613,-0.346l0.616,-0.341l0.617,-0.338l0.62,-0.335l0.623,-0.331l0.624,-0.327l0.626,-0.324l0.629,-0.319l0.631,-0.316l0.633,-0.313l0.636,-0.309l0.637,-0.305l0.64,-0.301l0.641,-0.297l0.644,-0.294l0.646,-0.29l0.648,-0.286l0.65,-0.282l0.652,-0.278l0.654,-0.275l0.656,-0.27l0.658,-0.267l0.66,-0.263l0.662,-0.259l0.664,-0.254l0.666,-0.251l0.667,-0.248l0.67,-0.243l0.672,-0.239l0.673,-0.235l0.675,-0.231l0.678,-0.227l0.679,-0.223l0.681,-0.219l0.682,-0.215l0.685,-0.21l0.686,-0.207l0.688,-0.203l0.69,-0.198l0.691,-0.194l0.693,-0.19l0.695,-0.186l0.697,-0.182l0.698,-0.177l0.7,-0.174l0.702,-0.169l0.703,-0.165l0.705,-0.16l0.707,-0.157l0.708,-0.152l0.709,-0.147l0.712,-0.144l0.712,-0.139l0.715,-0.134l0.715,-0.131l0.718,-0.126l0.719,-0.121l0.72,-0.117l0.722,-0.113l0.723,-0.108l0.725,-0.104l0.726,-0.1l0.727,-0.095l0.729,-0.09l0.731,-0.086l0.731,-0.081l0.733,-0.077l0.735,-0.073l0.735,-0.067l0.737,-0.064l0.738,-0.058l0.74,-0.054l0.741,-0.05l0.742,-0.044l0.743,-0.04l0.745,-0.036l0.745,-0.031l0.747,-0.026l0.748,-0.021l0.75,-0.017l0.75,-0.011l0.752,-0.008l0.752,-0.002l0.753,0.002Zm-1.453,8.334l-0.697,0.006l-0.7,0.011l-0.696,0.016l-0.695,0.02l-0.694,0.024l-0.692,0.028l-0.693,0.033l-0.69,0.037l-0.689,0.042l-0.689,0.046l-0.687,0.05l-0.684,0.054l-0.685,0.059l-0.684,0.063l-0.682,0.067l-0.68,0.072l-0.679,0.075l-0.678,0.08l-0.678,0.084l-0.676,0.088l-0.672,0.092l-0.674,0.097l-0.671,0.1l-0.67,0.105l-0.669,0.109l-0.667,0.113l-0.666,0.117l-0.662,0.12l-0.664,0.125l-0.662,0.13l-0.662,0.133l-0.658,0.137l-0.656,0.141l-0.655,0.144l-0.653,0.15l-0.655,0.153l-0.652,0.157l-0.648,0.16l-0.648,0.165l-0.647,0.169l-0.642,0.172l-0.645,0.177l-0.642,0.18l-0.639,0.184l-0.64,0.188l-0.636,0.192l-0.635,0.195l-0.633,0.199l-0.63,0.203l-0.634,0.208l-0.629,0.211l-0.624,0.213l-0.623,0.218l-0.625,0.222l-0.622,0.226l-0.62,0.23l-0.618,0.232l-0.614,0.236l-0.616,0.241l-0.612,0.244l-0.609,0.247l-0.61,0.251l-0.608,0.256l-0.605,0.258l-0.603,0.261l-0.6,0.266l-0.599,0.268l-0.598,0.273l-0.597,0.277l-0.591,0.278l-0.592,0.284l-0.592,0.287l-0.587,0.29l-0.585,0.293l-0.582,0.296l-0.582,0.301l-0.582,0.304l-0.578,0.308l-0.574,0.309l-0.573,0.314l-0.572,0.318l-0.568,0.319l-0.568,0.325l-0.565,0.328l-0.561,0.329l-0.562,0.335l-0.56,0.338l-0.556,0.34l-0.552,0.343l-0.551,0.346l-0.551,0.351l-0.549,0.354l-0.545,0.357l-0.542,0.359l-0.541,0.363l-0.537,0.366l-0.537,0.37l-0.532,0.371l-0.533,0.377l-0.531,0.38l-0.524,0.379l-0.523,0.384l-0.523,0.39l-0.52,0.391l-0.516,0.393l-0.516,0.399l-0.513,0.4l-0.508,0.402l-0.506,0.405l-0.505,0.409l-0.504,0.414l-0.499,0.414l-0.497,0.418l-0.495,0.421l-0.492,0.424l-0.49,0.427l-0.486,0.428l-0.486,0.434l-0.481,0.435l-0.478,0.437l-0.476,0.44l-0.472,0.443l-0.474,0.449l-0.469,0.45l-0.467,0.453l-0.46,0.451l-0.46,0.459l-0.46,0.462l-0.453,0.461l-0.453,0.467l-0.45,0.469l-0.446,0.471l-0.446,0.475l-0.439,0.475l-0.436,0.477l-0.436,0.482l-0.434,0.486l-0.428,0.486l-0.428,0.49l-0.423,0.492l-0.42,0.494l-0.42,0.499l-0.413,0.498l-0.411,0.501l-0.412,0.508l-0.405,0.506l-0.403,0.509l-0.4,0.513l-0.396,0.513l-0.395,0.518l-0.391,0.519l-0.39,0.525l-0.383,0.521l-0.382,0.527l-0.379,0.53l-0.374,0.529l-0.373,0.534l-0.37,0.538l-0.367,0.538l-0.361,0.539l-0.361,0.544l-0.357,0.546l-0.353,0.547l-0.349,0.548l-0.348,0.553l-0.345,0.556l-0.338,0.552l-0.336,0.558l-0.338,0.566l-0.33,0.562l-0.324,0.56l-0.326,0.571l-0.321,0.569l-0.316,0.57l-0.314,0.573l-0.311,0.576l-0.309,0.581l-0.302,0.577l-0.299,0.578l-0.298,0.587l-0.295,0.587l-0.288,0.585l-0.287,0.591l-0.284,0.592l-0.278,0.591l-0.277,0.598l-0.273,0.599l-0.268,0.598l-0.266,0.602l-0.262,0.601l-0.257,0.604l-0.256,0.61l-0.251,0.607l-0.246,0.609l-0.245,0.615l-0.24,0.614l-0.237,0.616l-0.232,0.617l-0.229,0.619l-0.227,0.626l-0.222,0.622l-0.217,0.622l-0.214,0.627l-0.211,0.628l-0.207,0.63l-0.204,0.634l-0.199,0.633l-0.196,0.636l-0.191,0.635l-0.188,0.639l-0.184,0.638l-0.18,0.643l-0.177,0.644l-0.172,0.643l-0.169,0.649l-0.165,0.647l-0.16,0.647l-0.157,0.65l-0.153,0.655l-0.15,0.657l-0.145,0.655l-0.141,0.656l-0.137,0.658l-0.133,0.66l-0.129,0.661l-0.125,0.663l-0.121,0.664l-0.116,0.666l-0.113,0.667l-0.109,0.67l-0.104,0.666l-0.101,0.672l-0.097,0.678l-0.092,0.671l-0.088,0.673l-0.084,0.678l-0.079,0.68l-0.076,0.681l-0.072,0.679l-0.066,0.679l-0.064,0.686l-0.059,0.687l-0.054,0.684l-0.05,0.685l-0.046,0.687l-0.041,0.689l-0.038,0.694l-0.033,0.691l-0.028,0.692l-0.024,0.694l-0.02,0.695l-0.016,0.696l-0.01,0.698l-0.007,0.703l-0.003,0.699l0.003,0.699l0.007,0.703l0.01,0.697l0.016,0.697l0.02,0.695l0.024,0.693l0.028,0.693l0.033,0.691l0.038,0.694l0.041,0.688l0.046,0.687l0.05,0.686l0.054,0.684l0.059,0.687l0.064,0.686l0.066,0.68l0.072,0.678l0.076,0.681l0.079,0.68l0.084,0.678l0.088,0.673l0.092,0.671l0.097,0.677l0.101,0.672l0.104,0.667l0.109,0.67l0.112,0.667l0.117,0.666l0.121,0.664l0.125,0.663l0.129,0.661l0.133,0.659l0.137,0.659l0.141,0.656l0.145,0.655l0.15,0.656l0.153,0.656l0.157,0.65l0.16,0.648l0.165,0.646l0.169,0.649l0.172,0.642l0.177,0.645l0.18,0.643l0.184,0.638l0.188,0.64l0.191,0.633l0.196,0.637l0.199,0.634l0.204,0.632l0.207,0.631l0.211,0.629l0.214,0.626l0.217,0.621l0.222,0.624l0.227,0.625l0.228,0.618l0.233,0.618l0.237,0.615l0.24,0.614l0.245,0.616l0.246,0.608l0.251,0.608l0.256,0.61l0.257,0.604l0.262,0.601l0.266,0.603l0.268,0.597l0.273,0.599l0.277,0.598l0.278,0.59l0.284,0.593l0.287,0.591l0.288,0.584l0.295,0.588l0.298,0.587l0.299,0.578l0.302,0.577l0.309,0.581l0.31,0.575l0.315,0.573l0.317,0.572l0.32,0.568l0.325,0.57l0.325,0.561l0.33,0.561l0.338,0.567l0.336,0.558l0.338,0.552l0.345,0.556l0.348,0.553l0.349,0.548l0.353,0.546l0.357,0.546l0.361,0.545l0.361,0.538l0.367,0.539l0.37,0.538l0.373,0.534l0.374,0.529l0.379,0.529l0.382,0.527l0.383,0.522l0.39,0.524l0.391,0.52l0.395,0.517l0.396,0.514l0.4,0.513l0.403,0.509l0.405,0.506l0.412,0.507l0.411,0.502l0.414,0.499l0.419,0.499l0.419,0.492l0.424,0.491l0.428,0.492l0.428,0.485l0.434,0.487l0.436,0.482l0.436,0.477l0.439,0.474l0.446,0.476l0.447,0.472l0.449,0.468l0.452,0.466l0.454,0.461l0.46,0.463l0.46,0.458l0.462,0.453l0.466,0.453l0.467,0.448l0.473,0.448l0.474,0.445l0.476,0.44l0.478,0.437l0.481,0.435l0.487,0.434l0.486,0.429l0.488,0.425l0.491,0.423l0.497,0.423l0.498,0.419l0.498,0.413l0.503,0.412l0.507,0.412l0.505,0.404l0.508,0.402l0.513,0.4l0.515,0.397l0.519,0.396l0.518,0.39l0.522,0.388l0.524,0.386l0.525,0.38l0.53,0.379l0.533,0.377l0.532,0.371l0.537,0.37l0.538,0.367l0.539,0.361l0.542,0.359l0.546,0.357l0.549,0.355l0.551,0.351l0.551,0.346l0.553,0.344l0.555,0.339l0.56,0.338l0.562,0.335l0.561,0.329l0.565,0.328l0.567,0.323l0.569,0.321l0.572,0.317l0.573,0.314l0.576,0.311l0.578,0.308l0.58,0.304l0.58,0.299l0.582,0.296l0.587,0.294l0.588,0.29l0.593,0.288l0.588,0.282l0.591,0.278l0.599,0.277l0.598,0.273l0.599,0.269l0.602,0.266l0.601,0.261l0.603,0.257l0.61,0.256l0.61,0.252l0.609,0.247l0.612,0.244l0.616,0.24l0.614,0.237l0.618,0.232l0.62,0.23l0.622,0.225l0.625,0.223l0.623,0.217l0.626,0.215l0.627,0.21l0.632,0.207l0.632,0.204l0.633,0.198l0.635,0.196l0.638,0.192l0.638,0.188l0.639,0.184l0.642,0.18l0.643,0.177l0.644,0.172l0.647,0.169l0.648,0.164l0.65,0.161l0.652,0.158l0.651,0.152l0.653,0.149l0.657,0.145l0.658,0.141l0.658,0.137l0.66,0.133l0.66,0.129l0.664,0.125l0.664,0.121l0.666,0.117l0.667,0.113l0.669,0.109l0.67,0.104l0.671,0.101l0.674,0.097l0.674,0.092l0.674,0.088l0.676,0.083l0.68,0.08l0.679,0.076l0.68,0.071l0.682,0.068l0.684,0.063l0.685,0.058l0.684,0.055l0.687,0.05l0.689,0.046l0.689,0.041l0.69,0.037l0.693,0.033l0.692,0.029l0.694,0.024l0.697,0.02l0.694,0.016l0.698,0.01l0.701,0.007l0.698,0.003l0.699,-0.003l0.701,-0.007l0.697,-0.01l0.695,-0.016l0.697,-0.02l0.694,-0.024l0.692,-0.029l0.693,-0.033l0.69,-0.037l0.688,-0.041l0.69,-0.046l0.687,-0.05l0.684,-0.055l0.685,-0.058l0.683,-0.063l0.682,-0.068l0.681,-0.071l0.679,-0.076l0.679,-0.08l0.677,-0.083l0.674,-0.088l0.674,-0.092l0.674,-0.097l0.671,-0.101l0.669,-0.104l0.669,-0.109l0.668,-0.113l0.666,-0.117l0.663,-0.121l0.664,-0.125l0.662,-0.129l0.659,-0.133l0.658,-0.137l0.658,-0.141l0.656,-0.145l0.654,-0.149l0.651,-0.152l0.651,-0.158l0.65,-0.161l0.649,-0.165l0.646,-0.168l0.645,-0.172l0.642,-0.177l0.643,-0.18l0.639,-0.184l0.637,-0.188l0.638,-0.192l0.636,-0.196l0.632,-0.198l0.632,-0.204l0.632,-0.207l0.626,-0.21l0.627,-0.215l0.626,-0.218l0.621,-0.221l0.623,-0.226l0.622,-0.23l0.616,-0.232l0.615,-0.237l0.615,-0.24l0.613,-0.244l0.608,-0.247l0.61,-0.252l0.611,-0.256l0.603,-0.257l0.601,-0.261l0.602,-0.266l0.599,-0.269l0.598,-0.273l0.598,-0.277l0.592,-0.278l0.588,-0.282l0.592,-0.288l0.589,-0.29l0.586,-0.294l0.583,-0.296l0.58,-0.299l0.58,-0.304l0.578,-0.308l0.576,-0.311l0.573,-0.314l0.572,-0.317l0.569,-0.321l0.567,-0.323l0.565,-0.328l0.561,-0.329l0.562,-0.335l0.56,-0.338l0.554,-0.339l0.554,-0.344l0.551,-0.346l0.551,-0.351l0.549,-0.355l0.546,-0.357l0.54,-0.358l0.54,-0.362l0.541,-0.369l0.535,-0.368l0.532,-0.371l0.533,-0.377l0.529,-0.379l0.525,-0.38l0.525,-0.386l0.522,-0.388l0.518,-0.39l0.519,-0.396l0.515,-0.397l0.513,-0.4l0.508,-0.402l0.505,-0.404l0.507,-0.412l0.503,-0.412l0.497,-0.413l0.499,-0.419l0.496,-0.423l0.492,-0.423l0.487,-0.425l0.487,-0.429l0.484,-0.432l0.483,-0.437l0.481,-0.439l0.474,-0.438l0.473,-0.445l0.474,-0.448l0.467,-0.448l0.466,-0.453l0.462,-0.453l0.46,-0.458l0.46,-0.463l0.453,-0.461l0.452,-0.466l0.449,-0.468l0.448,-0.472l0.446,-0.476l0.439,-0.474l0.436,-0.477l0.435,-0.482l0.435,-0.487l0.428,-0.485l0.428,-0.492l0.423,-0.491l0.419,-0.492l0.42,-0.499l0.414,-0.499l0.411,-0.502l0.411,-0.507l0.406,-0.506l0.402,-0.509l0.401,-0.513l0.396,-0.514l0.395,-0.517l0.391,-0.52l0.389,-0.524l0.384,-0.522l0.379,-0.524l0.381,-0.532l0.377,-0.532l0.37,-0.531l0.371,-0.538l0.366,-0.539l0.362,-0.538l0.361,-0.545l0.357,-0.546l0.353,-0.546l0.349,-0.548l0.347,-0.553l0.344,-0.553l0.339,-0.555l0.339,-0.561l0.335,-0.564l0.331,-0.561l0.325,-0.561l0.325,-0.57l0.32,-0.568l0.317,-0.572l0.315,-0.573l0.309,-0.575l0.308,-0.578l0.304,-0.58l0.3,-0.581l0.297,-0.584l0.295,-0.588l0.288,-0.584l0.287,-0.591l0.284,-0.593l0.278,-0.59l0.276,-0.598l0.274,-0.599l0.268,-0.597l0.265,-0.6l0.262,-0.604l0.259,-0.608l0.255,-0.606l0.251,-0.608l0.246,-0.608l0.245,-0.616l0.24,-0.614l0.236,-0.615l0.233,-0.618l0.229,-0.618l0.227,-0.625l0.222,-0.624l0.217,-0.621l0.214,-0.626l0.211,-0.629l0.207,-0.631l0.203,-0.632l0.2,-0.634l0.196,-0.637l0.191,-0.633l0.187,-0.636l0.184,-0.642l0.182,-0.647l0.176,-0.641l0.172,-0.642l0.169,-0.649l0.165,-0.646l0.16,-0.648l0.156,-0.65l0.154,-0.656l0.15,-0.656l0.145,-0.655l0.14,-0.652l0.136,-0.659l0.134,-0.663l0.129,-0.661l0.125,-0.667l0.122,-0.664l0.116,-0.662l0.113,-0.667l0.108,-0.666l0.104,-0.671l0.102,-0.676l0.097,-0.673l0.092,-0.671l0.087,-0.673l0.084,-0.678l0.08,-0.68l0.076,-0.681l0.072,-0.678l0.066,-0.68l0.063,-0.686l0.059,-0.683l0.054,-0.688l0.051,-0.69l0.046,-0.683l0.041,-0.688l0.037,-0.694l0.033,-0.691l0.029,-0.693l0.024,-0.693l0.02,-0.695l0.015,-0.697l0.011,-0.697l0.007,-0.699l0.002,-0.703l-0.002,-0.703l-0.007,-0.699l-0.011,-0.698l-0.015,-0.696l-0.02,-0.695l-0.024,-0.694l-0.029,-0.692l-0.033,-0.691l-0.037,-0.694l-0.041,-0.689l-0.046,-0.683l-0.051,-0.689l-0.054,-0.688l-0.059,-0.683l-0.063,-0.686l-0.066,-0.679l-0.072,-0.679l-0.076,-0.681l-0.08,-0.68l-0.084,-0.678l-0.087,-0.673l-0.092,-0.671l-0.097,-0.674l-0.102,-0.676l-0.104,-0.67l-0.108,-0.666l-0.113,-0.667l-0.116,-0.662l-0.121,-0.664l-0.126,-0.667l-0.129,-0.661l-0.134,-0.664l-0.136,-0.658l-0.14,-0.652l-0.145,-0.655l-0.15,-0.657l-0.154,-0.655l-0.156,-0.65l-0.16,-0.647l-0.165,-0.647l-0.169,-0.649l-0.172,-0.643l-0.176,-0.641l-0.182,-0.646l-0.184,-0.641l-0.187,-0.636l-0.191,-0.635l-0.196,-0.636l-0.2,-0.633l-0.203,-0.634l-0.207,-0.63l-0.211,-0.628l-0.214,-0.627l-0.217,-0.622l-0.222,-0.622l-0.227,-0.626l-0.229,-0.619l-0.233,-0.617l-0.236,-0.616l-0.24,-0.614l-0.245,-0.615l-0.246,-0.609l-0.251,-0.607l-0.255,-0.606l-0.259,-0.608l-0.262,-0.604l-0.265,-0.599l-0.268,-0.598l-0.274,-0.599l-0.276,-0.598l-0.279,-0.591l-0.283,-0.592l-0.287,-0.591l-0.288,-0.585l-0.295,-0.587l-0.297,-0.583l-0.3,-0.582l-0.304,-0.58l-0.308,-0.578l-0.31,-0.576l-0.314,-0.573l-0.316,-0.57l-0.321,-0.569l-0.326,-0.571l-0.324,-0.56l-0.331,-0.562l-0.335,-0.563l-0.339,-0.561l-0.339,-0.555l-0.344,-0.553l-0.347,-0.553l-0.349,-0.548l-0.353,-0.547l-0.357,-0.546l-0.361,-0.544l-0.362,-0.539l-0.366,-0.538l-0.371,-0.538l-0.37,-0.531l-0.377,-0.532l-0.381,-0.532l-0.379,-0.525l-0.384,-0.521l-0.389,-0.525l-0.391,-0.519l-0.395,-0.518l-0.396,-0.513l-0.401,-0.513l-0.402,-0.509l-0.406,-0.506l-0.411,-0.508l-0.411,-0.501l-0.414,-0.498l-0.419,-0.499l-0.421,-0.494l-0.423,-0.492l-0.427,-0.49l-0.428,-0.486l-0.435,-0.486l-0.435,-0.482l-0.436,-0.477l-0.439,-0.475l-0.446,-0.475l-0.447,-0.471l-0.45,-0.469l-0.453,-0.467l-0.452,-0.461l-0.46,-0.462l-0.46,-0.459l-0.461,-0.451l-0.466,-0.453l-0.469,-0.45l-0.474,-0.449l-0.472,-0.443l-0.474,-0.438l-0.481,-0.439l-0.483,-0.437l-0.483,-0.432l-0.486,-0.428l-0.49,-0.427l-0.492,-0.424l-0.495,-0.421l-0.497,-0.418l-0.499,-0.414l-0.504,-0.414l-0.505,-0.409l-0.506,-0.405l-0.508,-0.402l-0.513,-0.4l-0.516,-0.399l-0.516,-0.393l-0.52,-0.391l-0.524,-0.39l-0.523,-0.384l-0.523,-0.379l-0.531,-0.38l-0.533,-0.377l-0.532,-0.371l-0.535,-0.369l-0.54,-0.367l-0.543,-0.364l-0.54,-0.358l-0.544,-0.357l-0.549,-0.354l-0.551,-0.351l-0.551,-0.346l-0.552,-0.343l-0.556,-0.34l-0.56,-0.338l-0.562,-0.335l-0.561,-0.329l-0.565,-0.328l-0.569,-0.325l-0.567,-0.319l-0.572,-0.318l-0.573,-0.314l-0.574,-0.309l-0.578,-0.308l-0.582,-0.304l-0.582,-0.301l-0.582,-0.296l-0.585,-0.293l-0.587,-0.29l-0.592,-0.287l-0.592,-0.284l-0.591,-0.278l-0.597,-0.277l-0.598,-0.273l-0.599,-0.268l-0.6,-0.266l-0.603,-0.261l-0.605,-0.258l-0.609,-0.256l-0.61,-0.251l-0.608,-0.247l-0.613,-0.244l-0.615,-0.241l-0.615,-0.236l-0.616,-0.232l-0.622,-0.23l-0.623,-0.226l-0.621,-0.221l-0.626,-0.219l-0.625,-0.214l-0.628,-0.21l-0.633,-0.208l-0.631,-0.203l-0.632,-0.199l-0.636,-0.195l-0.636,-0.192l-0.639,-0.188l-0.639,-0.184l-0.643,-0.18l-0.644,-0.177l-0.643,-0.172l-0.646,-0.169l-0.649,-0.165l-0.648,-0.16l-0.651,-0.157l-0.655,-0.153l-0.654,-0.15l-0.654,-0.144l-0.656,-0.141l-0.658,-0.137l-0.661,-0.133l-0.664,-0.13l-0.664,-0.125l-0.661,-0.12l-0.666,-0.117l-0.668,-0.113l-0.669,-0.109l-0.669,-0.105l-0.671,-0.1l-0.674,-0.097l-0.672,-0.092l-0.676,-0.088l-0.679,-0.084l-0.677,-0.08l-0.679,-0.075l-0.681,-0.072l-0.682,-0.067l-0.683,-0.063l-0.685,-0.059l-0.684,-0.054l-0.687,-0.05l-0.69,-0.046l-0.688,-0.042l-0.69,-0.037l-0.693,-0.033l-0.692,-0.028l-0.694,-0.024l-0.695,-0.02l-0.697,-0.016l-0.699,-0.011l-0.697,-0.006l-0.701,-0.002l-0.7,0.002Z" style="fill:#82c547;"/></svg>