<?xml version="1.0" encoding="UTF-8" standalone="no"?><!DOCTYPE svg PUBLIC "-//W3C//DTD SVG 1.1//EN" "http://www.w3.org/Graphics/SVG/1.1/DTD/svg11.dtd"><svg width="100%" height="100%" viewBox="0 0 355 355" version="1.1" xmlns="http://www.w3.org/2000/svg" xmlns:xlink="http://www.w3.org/1999/xlink" xml:space="preserve" xmlns:serif="http://www.serif.com/" style="fill-rule:evenodd;clip-rule:evenodd;stroke-linejoin:round;stroke-miterlimit:1.41421;"><g><circle cx="175.554" cy="175.554" r="175.554" style="fill:none;"/><g><path d="M130.171,181.558l0,6.484c-5.208,1.35 -9.079,6.046 -9.079,11.671c0,6.674 5.429,12.104 12.104,12.104c3.337,0 6.05,2.716 6.05,6.05c0,3.337 -2.713,6.054 -6.05,6.054c-3.338,0 -6.05,-2.717 -6.05,-6.054l-6.054,0c0,5.625 3.871,10.32 9.079,11.675l0,6.483l6.05,0l0,-6.483c5.208,-1.355 9.079,-6.05 9.079,-11.675c0,-6.671 -5.429,-12.1 -12.104,-12.1c-3.338,0 -6.05,-2.717 -6.05,-6.055c0,-3.337 2.712,-6.049 6.05,-6.049c3.337,0 6.05,2.712 6.05,6.049l6.054,0c0,-5.625 -3.871,-10.32 -9.079,-11.67l0,-6.484l-6.05,0Z" style="fill:#fff;fill-rule:nonzero;"/><path d="M139.85,152.513l-6.654,-4.992l-6.654,4.992c-11.971,8.975 -26.8,13.92 -41.759,13.92l-3.025,0l0,37.846c0,30.771 20.85,57.475 50.705,64.938l0.733,0.183l0.733,-0.188c29.854,-7.458 50.704,-34.162 50.704,-64.933l0,-37.846l-3.025,0c-14.958,0 -29.791,-4.946 -41.758,-13.921Zm38.729,51.767c0,27.734 -18.621,51.842 -45.383,58.879c-26.763,-7.037 -45.388,-31.145 -45.388,-58.879l0,-31.858c15.225,-0.621 30.163,-5.917 42.363,-15.067l3.025,-2.271l3.025,2.271c12.2,9.15 27.137,14.446 42.358,15.067l0,31.858Z" style="fill:#fff;fill-rule:nonzero;"/><path d="M266.038,104.375l-12.917,-12.917c-6.284,-6.283 -14.642,-9.745 -23.534,-9.745l-68.508,0c-4.929,0 -9.775,1.337 -14.012,3.879l-4.796,2.879l0,-6.758l-60.513,-0.001l0,54.463l60.513,0l0,-6.054l11.208,0c6.258,3.967 13.458,6.054 20.879,6.054l4.221,0l0,12.1c0,6.675 5.429,12.104 12.104,12.104c6.675,0 12.104,-5.429 12.104,-12.104l0,-13.783c3.6,-2.1 6.05,-5.963 6.05,-10.421c0,-1.388 -0.283,-2.7 -0.716,-3.946c2.004,-1.363 4.321,-2.104 6.771,-2.104c6.675,0 12.1,5.425 12.1,12.1l0,114.979l-5.588,0l-4.037,24.204l43.454,0l-4.038,-24.204l-5.583,0l0,-114.979c0,-3.104 -0.438,-6.142 -1.192,-9.079c2.075,1.912 4.825,3.029 7.65,3.029l0.379,0c6.238,0 11.317,-5.075 11.317,-11.317l0,-0.379c0,-2.979 -1.208,-5.892 -3.317,-8Zm-129.816,25.746l-48.413,0l0,-42.359l48.413,0.001l0,42.358Zm60.516,18.154c0,3.338 -2.716,6.054 -6.054,6.054c-3.337,0 -6.05,-2.716 -6.05,-6.054l0,-12.1l12.105,0l0,12.1Zm54.925,102.875l2.012,12.104l-29.163,0l2.013,-12.104l25.137,0Zm-18.616,-6.05l0,-114.979c0,-10.008 -8.146,-18.154 -18.154,-18.154c-3.655,0 -7.113,1.112 -10.104,3.133c-2.146,-1.925 -4.946,-3.133 -8.05,-3.133l-7.825,0l3.391,-3.392c1.713,-1.712 3.992,-2.658 6.421,-2.658l32.333,0c1.142,0 2.246,0.229 3.28,0.629l-0.196,0.237c6.996,5.771 11.004,14.279 11.004,23.338l0,114.979l-12.1,0Zm30.254,-132.346c0,2.904 -2.358,5.267 -5.262,5.267l-0.38,0c-1.387,0 -2.741,-0.563 -3.72,-1.546l-12.18,-12.175c-2.858,-2.858 -6.658,-4.433 -10.7,-4.433l-32.333,0c-4.046,0 -7.846,1.575 -10.7,4.433l-7.671,7.667l-4.8,0l0,6.054l21.184,0c3.333,0 6.05,2.712 6.05,6.05c0,3.337 -2.717,6.05 -6.05,6.05l-22.38,0c-6.533,0 -12.866,-1.917 -18.308,-5.542l-0.758,-0.508l-13.021,0l0,-28.546l7.908,-4.746c3.296,-1.971 7.063,-3.016 10.9,-3.016l68.509,0c7.275,0 14.112,2.833 19.258,7.975l12.917,12.916c0.979,0.984 1.541,2.338 1.541,3.721l0,0.379l-0.004,0Z" style="fill:#fff;fill-rule:nonzero;"/><path d="M93.863,208.792c0,21.687 17.645,39.333 39.333,39.333c21.687,0 39.333,-17.646 39.333,-39.333c0,-21.688 -17.646,-39.334 -39.333,-39.334c-21.688,0 -39.333,17.646 -39.333,39.334Zm72.616,0c0,18.35 -14.933,33.283 -33.283,33.283c-18.35,0 -33.283,-14.933 -33.283,-33.283c0,-18.35 14.933,-33.284 33.283,-33.284c18.35,0 33.283,14.934 33.283,33.284Z" style="fill:#fff;fill-rule:nonzero;"/><rect x="154.375" y="205.767" width="6.05" height="6.05" style="fill:#fff;"/><rect x="105.963" y="205.767" width="6.05" height="6.05" style="fill:#fff;"/></g></g></svg>