<?xml version="1.0" encoding="UTF-8" standalone="no"?><!DOCTYPE svg PUBLIC "-//W3C//DTD SVG 1.1//EN" "http://www.w3.org/Graphics/SVG/1.1/DTD/svg11.dtd"><svg width="100%" height="100%" viewBox="0 0 85 85" version="1.1" xmlns="http://www.w3.org/2000/svg" xmlns:xlink="http://www.w3.org/1999/xlink" xml:space="preserve" xmlns:serif="http://www.serif.com/" style="fill-rule:evenodd;clip-rule:evenodd;stroke-linejoin:round;stroke-miterlimit:1.41421;"><g><g><circle cx="42.133" cy="42.133" r="42.133" style="fill:#82c547;"/></g><g><path d="M36.888,41.116c-0.518,-0.517 -1.357,-0.517 -1.874,0c-0.517,0.518 -0.517,1.356 0,1.874l4.122,4.121c0.258,0.259 0.597,0.389 0.936,0.389c0.339,0 0.679,-0.13 0.937,-0.389l8.243,-8.243c0.518,-0.517 0.518,-1.356 0,-1.873c-0.517,-0.518 -1.356,-0.518 -1.873,0l-7.307,7.306l-3.184,-3.185Z" style="fill:#fff;fill-rule:nonzero;"/><path d="M58.906,25.706c-3.818,0 -7.297,-2.098 -9.079,-5.476c-0.229,-0.435 -0.68,-0.707 -1.171,-0.707l-13.045,0c-0.491,0 -0.942,0.272 -1.172,0.707c-1.781,3.378 -5.26,5.476 -9.087,5.476c-0.731,0 -1.324,0.593 -1.324,1.325l0,13.491c0,5.423 1.694,10.602 4.9,14.977c3.206,4.374 7.634,7.55 12.806,9.183c0.13,0.041 0.265,0.061 0.399,0.061c0.135,0 0.269,-0.02 0.399,-0.061c5.172,-1.633 9.6,-4.809 12.806,-9.183c3.206,-4.375 4.901,-9.554 4.901,-14.977l0,-13.491c0,-0.732 -0.601,-1.325 -1.333,-1.325Zm-1.317,14.816c0,9.804 -6.193,18.393 -15.456,21.503c-9.262,-3.11 -15.456,-11.699 -15.456,-21.503l0,-12.233c4.01,-0.407 7.596,-2.657 9.705,-6.116l11.503,0c2.108,3.457 5.692,5.707 9.704,6.115l0,12.234Z" style="fill:#fff;fill-rule:nonzero;"/><path d="M46.867,25.309c-0.252,-0.308 -0.628,-0.487 -1.026,-0.487l-7.416,0c-0.397,0 -0.774,0.179 -1.025,0.487c-1.874,2.292 -4.35,3.992 -7.162,4.917c-0.544,0.178 -0.911,0.686 -0.911,1.258l0,9.038c0,8.113 4.826,15.368 12.296,18.483c0.164,0.068 0.337,0.102 0.51,0.102c0.174,0 0.347,-0.034 0.51,-0.102c7.47,-3.115 12.297,-10.37 12.297,-18.483l0,-9.037c0,-0.572 -0.368,-1.08 -0.911,-1.259c-2.812,-0.924 -5.289,-2.625 -7.162,-4.917Zm5.423,15.213c0,6.854 -3.968,13.001 -10.157,15.815c-6.188,-2.813 -10.157,-8.961 -10.157,-15.815l0,-8.106c2.719,-1.057 5.137,-2.748 7.063,-4.944l6.188,0c1.927,2.196 4.344,3.888 7.063,4.945l0,8.105Z" style="fill:#fff;fill-rule:nonzero;"/></g></g></svg>