<?xml version="1.0" encoding="UTF-8" standalone="no"?><!DOCTYPE svg PUBLIC "-//W3C//DTD SVG 1.1//EN" "http://www.w3.org/Graphics/SVG/1.1/DTD/svg11.dtd"><svg width="100%" height="100%" viewBox="0 0 412 336" version="1.1" xmlns="http://www.w3.org/2000/svg" xmlns:xlink="http://www.w3.org/1999/xlink" xml:space="preserve" xmlns:serif="http://www.serif.com/" style="fill-rule:evenodd;clip-rule:evenodd;stroke-linejoin:round;stroke-miterlimit:1.41421;"><g><path d="M8.621,134.996c21.871,-78.217 75.825,-134.996 128.271,-134.996c4.213,0 8.421,0.367 12.521,1.092c2.325,0.408 4.358,1.775 5.617,3.758c1.254,1.996 1.608,4.421 0.971,6.687l-10.796,38.617c-1.042,3.729 -4.638,6.25 -8.375,6.079l-0.859,-0.016c-19.45,0 -54.995,29.15 -73.116,93.937c-0.717,2.571 -1.396,5.2 -2.05,7.942c20.341,-10.067 44.608,-12.396 66.583,-6.275c49.575,13.871 78.617,65.479 64.758,115.046c-11.233,40.162 -48.179,68.22 -89.845,68.22c-8.488,0 -16.963,-1.17 -25.192,-3.475c-32.692,-9.137 -57.271,-36.279 -69.213,-76.408c-10.779,-36.204 -10.508,-80.017 0.725,-120.208Z" style="fill:#82c547;fill-rule:nonzero;"/><path d="M353.088,0.008c4.204,0 8.417,0.359 12.513,1.084c2.32,0.4 4.358,1.775 5.612,3.758c1.254,1.996 1.608,4.421 0.975,6.687l-10.8,38.617c-1.042,3.729 -4.571,6.25 -8.375,6.079l-0.85,-0.016c-19.45,0 -55,29.15 -73.121,93.937c-0.721,2.588 -1.4,5.217 -2.05,7.942c20.35,-10.067 44.609,-12.396 66.584,-6.275c49.566,13.871 78.616,65.479 64.75,115.046c-11.234,40.162 -48.18,68.22 -89.846,68.22c-8.488,0 -16.963,-1.17 -25.196,-3.475c-32.688,-9.137 -57.267,-36.279 -69.213,-76.408c-10.775,-36.204 -10.508,-80.021 0.73,-120.217c21.883,-78.208 75.829,-134.979 128.287,-134.979Z" style="fill:#82c547;fill-rule:nonzero;"/></g></svg>