<?xml version="1.0" encoding="UTF-8" standalone="no"?><!DOCTYPE svg PUBLIC "-//W3C//DTD SVG 1.1//EN" "http://www.w3.org/Graphics/SVG/1.1/DTD/svg11.dtd"><svg width="100%" height="100%" viewBox="0 0 85 85" version="1.1" xmlns="http://www.w3.org/2000/svg" xmlns:xlink="http://www.w3.org/1999/xlink" xml:space="preserve" xmlns:serif="http://www.serif.com/" style="fill-rule:evenodd;clip-rule:evenodd;stroke-linejoin:round;stroke-miterlimit:1.41421;"><g><circle cx="42.133" cy="42.133" r="42.133" style="fill:#82c547;"/><g><path d="M31.241,43.574l0,1.556c-1.25,0.324 -2.179,1.451 -2.179,2.801c0,1.602 1.303,2.905 2.905,2.905c0.801,0 1.452,0.652 1.452,1.452c0,0.801 -0.651,1.453 -1.452,1.453c-0.801,0 -1.452,-0.652 -1.452,-1.453l-1.453,0c0,1.35 0.929,2.477 2.179,2.802l0,1.556l1.452,0l0,-1.556c1.25,-0.325 2.179,-1.452 2.179,-2.802c0,-1.601 -1.303,-2.904 -2.905,-2.904c-0.801,0 -1.452,-0.652 -1.452,-1.453c0,-0.801 0.651,-1.452 1.452,-1.452c0.801,0 1.452,0.651 1.452,1.452l1.453,0c0,-1.35 -0.929,-2.477 -2.179,-2.801l0,-1.556l-1.452,0Z" style="fill:#fff;fill-rule:nonzero;"/><path d="M33.564,36.603l-1.597,-1.198l-1.597,1.198c-2.873,2.154 -6.432,3.341 -10.022,3.341l-0.726,0l0,9.083c0,7.385 5.004,13.794 12.169,15.585l0.176,0.044l0.176,-0.045c7.165,-1.79 12.169,-8.199 12.169,-15.584l0,-9.083l-0.726,0c-3.59,0 -7.15,-1.187 -10.022,-3.341Zm9.295,12.424c0,6.656 -4.469,12.442 -10.892,14.131c-6.423,-1.689 -10.893,-7.475 -10.893,-14.131l0,-7.646c3.654,-0.149 7.239,-1.42 10.167,-3.616l0.726,-0.545l0.726,0.545c2.928,2.196 6.513,3.467 10.166,3.616l0,7.646Z" style="fill:#fff;fill-rule:nonzero;"/><path d="M63.849,25.05l-3.1,-3.1c-1.508,-1.508 -3.514,-2.339 -5.648,-2.339l-16.442,0c-1.183,0 -2.346,0.321 -3.363,0.931l-1.151,0.691l0,-1.622l-14.523,0l0,13.071l14.523,0l0,-1.453l2.69,0c1.502,0.952 3.23,1.453 5.011,1.453l1.013,0l0,2.904c0,1.602 1.303,2.905 2.905,2.905c1.602,0 2.905,-1.303 2.905,-2.905l0,-3.308c0.864,-0.504 1.452,-1.431 1.452,-2.501c0,-0.333 -0.068,-0.648 -0.172,-0.947c0.481,-0.327 1.037,-0.505 1.625,-0.505c1.602,0 2.904,1.302 2.904,2.904l0,27.595l-1.341,0l-0.969,5.809l10.429,0l-0.969,-5.809l-1.34,0l0,-27.595c0,-0.745 -0.105,-1.474 -0.286,-2.179c0.498,0.459 1.158,0.727 1.836,0.727l0.091,0c1.497,0 2.716,-1.218 2.716,-2.716l0,-0.091c0,-0.715 -0.29,-1.414 -0.796,-1.92Zm-31.156,6.179l-11.619,0l0,-10.166l11.619,0l0,10.166Zm14.524,4.357c0,0.801 -0.652,1.453 -1.453,1.453c-0.801,0 -1.452,-0.652 -1.452,-1.453l0,-2.904l2.905,0l0,2.904Zm13.182,24.69l0.483,2.905l-6.999,0l0.483,-2.905l6.033,0Zm-4.468,-1.452l0,-27.595c0,-2.402 -1.955,-4.357 -4.357,-4.357c-0.877,0 -1.707,0.267 -2.425,0.752c-0.515,-0.462 -1.187,-0.752 -1.932,-0.752l-1.878,0l0.814,-0.814c0.411,-0.411 0.958,-0.638 1.541,-0.638l7.76,0c0.274,0 0.539,0.055 0.787,0.151l-0.047,0.057c1.679,1.385 2.641,3.427 2.641,5.601l0,27.595l-2.904,0Zm7.261,-31.763c0,0.697 -0.566,1.264 -1.263,1.264l-0.091,0c-0.333,0 -0.658,-0.135 -0.893,-0.371l-2.923,-2.922c-0.686,-0.686 -1.598,-1.064 -2.568,-1.064l-7.76,0c-0.971,0 -1.883,0.378 -2.568,1.064l-1.841,1.84l-1.152,0l0,1.453l5.084,0c0.8,0 1.452,0.651 1.452,1.452c0,0.801 -0.652,1.452 -1.452,1.452l-5.371,0c-1.568,0 -3.088,-0.46 -4.394,-1.33l-0.182,-0.122l-3.125,0l0,-6.851l1.898,-1.139c0.791,-0.473 1.695,-0.724 2.616,-0.724l16.442,0c1.746,0 3.387,0.68 4.622,1.914l3.1,3.1c0.235,0.236 0.37,0.561 0.37,0.893l0,0.091l-0.001,0Z" style="fill:#fff;fill-rule:nonzero;"/><path d="M22.527,50.11c0,5.205 4.235,9.44 9.44,9.44c5.205,0 9.44,-4.235 9.44,-9.44c0,-5.205 -4.235,-9.44 -9.44,-9.44c-5.205,0 -9.44,4.235 -9.44,9.44Zm17.428,0c0,4.404 -3.584,7.988 -7.988,7.988c-4.404,0 -7.988,-3.584 -7.988,-7.988c0,-4.404 3.584,-7.988 7.988,-7.988c4.404,0 7.988,3.584 7.988,7.988Z" style="fill:#fff;fill-rule:nonzero;"/><rect x="37.05" y="49.384" width="1.452" height="1.452" style="fill:#fff;fill-rule:nonzero;"/><rect x="25.431" y="49.384" width="1.452" height="1.452" style="fill:#fff;fill-rule:nonzero;"/></g></g></svg>