<?xml version="1.0" encoding="UTF-8" standalone="no"?>
<!DOCTYPE svg PUBLIC "-//W3C//DTD SVG 1.1//EN" "http://www.w3.org/Graphics/SVG/1.1/DTD/svg11.dtd">
<svg width="100%" height="100%" viewBox="0 0 379 326" version="1.1" xmlns="http://www.w3.org/2000/svg" xmlns:xlink="http://www.w3.org/1999/xlink" xml:space="preserve" xmlns:serif="http://www.serif.com/" style="fill-rule:evenodd;clip-rule:evenodd;stroke-linejoin:round;stroke-miterlimit:1.41421;">
    <g>
        <g>
            <g transform="matrix(1,0,0,1,-17.84,-11.94)">
                <path d="M85.64,302.29L85.48,302.45C75.76,312.3 99.39,318.3 105.48,319.31C120.54,321.8 139,317.05 154.24,316.08C188.907,313.9 223.657,313.193 258.49,313.96C275.37,314.34 293.06,314.9 308.19,307.39C310.19,306.39 312.26,305.05 312.68,302.9C313.47,298.9 308.15,295.73 308.84,291.76C312.29,288.25 317.89,288.58 322.72,287.63C327.55,286.68 332.81,282.01 330.54,277.63C329.7,276 328.01,275.01 326.38,274.16C308.33,264.72 290.46,261.42 270.1,260.1C224.59,257.17 181,262.38 136,268C109.35,271.33 82.88,266 57.09,272.51C50.52,274.18 50.22,283.51 56.65,285.62C64.679,288.225 72.974,289.922 81.38,290.68C84.883,291.007 87.593,293.982 87.593,297.5C87.593,299.29 86.891,301.01 85.64,302.29Z" style="fill:url(#_Linear1);fill-rule:nonzero;"/>
            </g>
            <rect x="79.43" y="180.26" width="37.94" height="33.05" style="fill:rgb(131,202,255);fill-opacity:0.41;"/>
            <rect x="117.07" y="154.55" width="37.94" height="58.75" style="fill:rgb(131,202,255);"/>
            <rect x="154.71" y="127.42" width="37.94" height="85.89" style="fill:rgb(131,202,255);fill-opacity:0.5;"/>
            <rect x="192.35" y="101" width="37.94" height="112.3" style="fill:rgb(131,202,255);"/>
            <rect x="229.99" y="74.38" width="37.94" height="138.93" style="fill:rgb(131,202,255);"/>
            <rect x="229.99" y="74.38" width="37.94" height="138.93" style="fill:url(#_Linear2);"/>
            <path d="M85.7,210.14L283.56,193.73L292.34,286.63L94.47,303.04L85.7,210.14Z" style="fill:rgb(131,202,255);fill-rule:nonzero;"/>
            <path d="M98.33,220.78L273.08,206.29L279.64,275.68L104.89,290.17L98.33,220.78Z" style="fill:url(#_Linear3);fill-rule:nonzero;"/>
            <path d="M132.89,299.85L279.65,240.7L261.49,195.56L266.11,195.18L248.91,152.87L223.91,159.72L212.07,168.42L105.94,301.28L132.89,299.85Z" style="fill:url(#_Linear4);fill-rule:nonzero;"/>
            <g transform="matrix(0.0657514,-0.997836,0.997836,0.0657514,-88.14,432.62)">
                <ellipse cx="202.25" cy="259.82" rx="26.64" ry="27.66" style="fill:rgb(131,202,255);"/>
            </g>
            <g transform="matrix(1,0,0,1,-17.84,-11.94)">
                <path d="M201.24,280.45L200.98,275.53C198.27,275.642 195.579,275.013 193.2,273.71L194.2,270.43C196.422,271.674 198.945,272.28 201.49,272.18C205.07,272.02 207.35,269.95 207.21,267.18C207.07,264.41 205.03,262.97 201.21,261.67C195.99,259.97 192.72,257.89 192.5,253.67C192.28,249.67 195.07,246.5 199.65,245.57L199.39,240.66L202.5,240.51L202.74,245.19C205.021,245.117 207.285,245.598 209.34,246.59L208.29,249.89C206.317,248.871 204.107,248.398 201.89,248.52C198.03,248.69 196.7,250.98 196.8,252.91C196.94,255.41 198.86,256.58 203.27,258.13C208.56,259.92 211.27,262.32 211.51,266.61C211.71,270.42 209.14,274.12 204.04,275.17L204.3,280.17L201.24,280.45Z" style="fill:url(#_Linear5);fill-rule:nonzero;"/>
            </g>
            <g transform="matrix(0.0657514,-0.997836,0.997836,0.0657514,-144.39,383.34)">
                <ellipse cx="147.81" cy="265.22" rx="6.81" ry="7.08" style="fill:rgb(131,202,255);"/>
            </g>
            <g transform="matrix(0.07,-1,1,0.07,-33.5,483.7)">
                <ellipse cx="256.85" cy="256.18" rx="6.81" ry="7.08" style="fill:rgb(131,202,255);"/>
            </g>
            <g transform="matrix(0.0657514,-0.997836,0.997836,0.0657514,36.22,482.24)">
                <ellipse cx="290.93" cy="218.22" rx="11.17" ry="11.6" style="fill:rgb(131,202,255);"/>
            </g>
            <g transform="matrix(0.0657514,-0.997836,0.997836,0.0657514,-26.87,553.61)">
                <ellipse cx="297.49" cy="287.59" rx="11.17" ry="11.6" style="fill:rgb(131,202,255);"/>
            </g>
            <g transform="matrix(0.0657514,-0.997836,0.997836,0.0657514,-141.52,321.4)">
                <ellipse cx="116.17" cy="232.71" rx="11.17" ry="11.6" style="fill:rgb(131,202,255);"/>
            </g>
            <g transform="matrix(0.0657514,-0.997836,0.997836,0.0657514,-204.6,392.77)">
                <ellipse cx="122.74" cy="302.08" rx="11.17" ry="11.6" style="fill:rgb(131,202,255);"/>
            </g>
            <path d="M55.03,218.39L240.45,150.51L275.22,237.7L89.8,305.58L55.03,218.39Z" style="fill:rgb(131,202,255);fill-rule:nonzero;"/>
            <path d="M70.18,225.32L233.94,165.37L259.92,230.49L96.16,290.44L70.18,225.32Z" style="fill:url(#_Linear6);fill-rule:nonzero;"/>
            <g transform="matrix(0.0657514,-0.997836,0.997836,0.0657514,-91.36,390.97)">
                <ellipse cx="178.4" cy="240.71" rx="26.64" ry="27.66" style="fill:rgb(131,202,255);"/>
            </g>
            <g transform="matrix(1,0,0,1,-17.84,-11.94)">
                <path d="M183.27,260.85L181.63,256.19C179.039,257.007 176.274,257.107 173.63,256.48L173.68,253.04C176.152,253.658 178.748,253.582 181.18,252.82C184.58,251.72 186.18,249.12 185.26,246.51C184.34,243.9 182,243 178,242.76C172.5,242.5 168.77,241.35 167.36,237.37C166.02,233.57 167.8,229.79 171.94,227.68L170.28,223L173.23,222L174.79,226.44C176.973,225.77 179.286,225.639 181.53,226.06L181.45,229.51C179.276,229.051 177.018,229.179 174.91,229.88C171.25,231.06 170.62,233.61 171.27,235.44C172.11,237.82 174.27,238.44 178.96,238.77C184.55,239.1 187.84,240.69 189.28,244.77C190.56,248.39 189.14,252.63 184.53,254.99L186.21,259.75L183.27,260.85Z" style="fill:url(#_Linear7);fill-rule:nonzero;"/>
            </g>
            <g transform="matrix(0.0657514,-0.997836,0.997836,0.0657514,-158.28,358.56)">
                <ellipse cx="127.63" cy="260.24" rx="6.81" ry="7.08" style="fill:rgb(131,202,255);"/>
            </g>
            <g transform="matrix(0.07,-1,1,0.07,-25.49,425.57)">
                <ellipse cx="229.81" cy="222.84" rx="6.81" ry="7.08" style="fill:rgb(131,202,255);"/>
            </g>
            <g transform="matrix(0.0657514,-0.997836,0.997836,0.0657514,40.48,404.96)">
                <ellipse cx="251.79" cy="177.3" rx="11.17" ry="11.6" style="fill:rgb(131,202,255);"/>
            </g>
            <g transform="matrix(0.0657514,-0.997836,0.997836,0.0657514,-0.2,491.7)">
                <ellipse cx="277.77" cy="242.4" rx="11.17" ry="11.6" style="fill:rgb(131,202,255);"/>
            </g>
            <g transform="matrix(0.0657514,-0.997836,0.997836,0.0657514,-172.35,297.56)">
                <ellipse cx="88.02" cy="237.26" rx="11.17" ry="11.6" style="fill:rgb(131,202,255);"/>
            </g>
            <g transform="matrix(0.0657514,-0.997836,0.997836,0.0657514,-213.04,384.3)">
                <ellipse cx="114" cy="302.35" rx="11.17" ry="11.6" style="fill:rgb(131,202,255);"/>
            </g>
            <g transform="matrix(1,0,0,1,-17.84,-11.94)">
                <path d="M131.05,160.71C130.992,160.772 130.945,160.843 130.91,160.92C130.725,161.709 130.725,162.531 130.91,163.32C131.156,165.057 131.575,166.766 132.16,168.42C132.202,168.577 132.28,168.721 132.39,168.84C132.655,169.038 133.03,169.008 133.26,168.77C133.472,168.528 133.617,168.235 133.68,167.92C133.902,166.997 134.069,166.062 134.18,165.12C134.35,163.92 135.97,163.24 136.9,162.7C136.978,162.663 137.044,162.604 137.09,162.53C137.09,162.43 137.65,163.7 137.62,163.6C137.393,162.872 137.109,162.163 136.77,161.48C136.77,161.42 136.17,159.97 136.12,159.94C136.07,159.91 135.91,159.94 135.82,160C135.045,160.367 134.162,160.434 133.34,160.19C132.539,159.965 131.675,160.161 131.05,160.71Z" style="fill:rgb(252,171,154);fill-rule:nonzero;"/>
            </g>
            <g transform="matrix(1,0,0,1,-17.84,-11.94)">
                <path d="M132.35,159.85C131.66,159.683 130.933,159.758 130.29,160.06C130.082,160.146 129.906,160.297 129.79,160.49C129.713,160.684 129.686,160.893 129.71,161.1C129.755,163.782 130.19,166.443 131,169C131.093,169.332 131.245,169.643 131.45,169.92C131.661,170.205 132.008,170.358 132.36,170.32C132.6,170.278 132.822,170.167 133,170C133.701,169.387 134.104,168.5 134.104,167.568C134.104,166.758 133.799,165.976 133.25,165.38C133.017,165.171 132.809,164.936 132.63,164.68C132.486,164.419 132.392,164.135 132.35,163.84C132.2,163.092 132.11,162.333 132.08,161.57C132.138,160.992 132.229,160.418 132.35,159.85Z" style="fill:rgb(71,63,71);fill-rule:nonzero;"/>
            </g>
            <g transform="matrix(1,0,0,1,-17.84,-11.94)">
                <path d="M153.21,146.79C152.675,148.397 152.006,149.956 151.21,151.45C149.43,154.45 146.64,156.77 143.83,158.88C142.3,160.03 140.76,161.14 139.18,162.22C138.36,162.668 137.503,163.046 136.62,163.35C136.536,163.401 136.438,163.425 136.34,163.42C136.263,163.396 136.193,163.351 136.14,163.29C134.92,162.2 134.06,160.79 135.4,159.7C136.756,158.666 137.994,157.486 139.09,156.18C141.25,153.46 143.09,150.35 145.95,148.31C146.607,147.993 146.939,147.239 146.73,146.54C146.45,142.54 146.307,138.517 146.3,134.47C146.221,133.366 146.392,132.259 146.8,131.23C148.03,128.68 152.48,128.36 154.88,128.59C155.444,128.594 155.995,128.757 156.47,129.06C159.22,131.23 157.99,133.94 157.01,136.58L153.21,146.79Z" style="fill:rgb(71,63,71);fill-rule:nonzero;"/>
            </g>
            <g transform="matrix(1,0,0,1,-17.84,-11.94)">
                <path d="M166.45,114.55C166.97,115.01 174.88,117.55 175.9,117.27C177.11,116.96 180.26,108.11 181.2,104.88C181.275,104.704 181.275,104.506 181.2,104.33C181.156,104.256 181.094,104.194 181.02,104.15C179.08,102.9 177.92,105.84 177.45,107.15C176.704,109.173 175.696,111.09 174.45,112.85C172.45,113.01 167.64,111.08 167.06,111.06C166.428,111.041 165.836,111.377 165.53,111.93C165.08,112.89 165.75,113.9 166.45,114.55Z" style="fill:rgb(252,171,154);fill-rule:nonzero;"/>
            </g>
            <g transform="matrix(1,0,0,1,-17.84,-11.94)">
                <path d="M167.31,109.69C167.55,109.85 167.79,110 168.04,110.14C168.149,110.183 168.238,110.265 168.29,110.37C168.315,110.455 168.315,110.545 168.29,110.63L167.82,112.77C167.676,113.726 167.336,114.642 166.82,115.46C166.53,115.85 164.41,114.46 164.11,114.23C163.23,113.648 162.461,112.913 161.84,112.06C161.552,111.692 161.332,111.275 161.19,110.83C160.988,109.747 161.153,108.628 161.66,107.65C162.49,106.04 163.87,106.83 164.93,107.82C165.66,108.52 166.457,109.146 167.31,109.69Z" style="fill:rgb(131,202,255);fill-rule:nonzero;"/>
            </g>
            <g transform="matrix(1,0,0,1,-17.84,-11.94)">
                <path d="M155.09,165.14C155.136,165.201 155.189,165.254 155.25,165.3C155.937,165.625 156.69,165.789 157.45,165.78C159.082,165.882 160.721,165.818 162.34,165.59C162.495,165.581 162.645,165.537 162.78,165.46C163.006,165.255 163.044,164.91 162.87,164.66C162.691,164.416 162.449,164.226 162.17,164.11C161.368,163.727 160.543,163.393 159.7,163.11C159.33,162.97 159.01,162.91 159.01,162.44C159.016,162.22 159.063,162.003 159.15,161.8L159.41,161.04C159.5,160.77 159.59,160.44 159.41,160.23C159.287,160.121 159.133,160.055 158.97,160.04C158.23,159.89 157.475,159.82 156.72,159.83C156.646,159.821 156.572,159.839 156.51,159.88C156.468,159.918 156.437,159.966 156.42,160.02C155.89,161.25 154.1,163.87 155.09,165.14Z" style="fill:rgb(252,171,154);fill-rule:nonzero;"/>
            </g>
            <g transform="matrix(1,0,0,1,-17.84,-11.94)">
                <path d="M148.63,125.75C148.63,125.75 144.63,131.35 148.74,136.33C151.61,139.79 155.9,142.14 159.85,144.12C160.54,144.47 161.36,144.76 162.03,145.18C163.34,145.99 162.53,146.69 161.84,147.79C160.11,150.59 158.35,153.36 156.58,156.13C155.548,157.517 154.843,159.121 154.52,160.82L159,162.17C161.402,158.06 164.141,154.156 167.19,150.5C168.51,148.92 170.19,146.99 169.98,144.79C169.673,142.765 168.78,140.873 167.41,139.35L159,129.61L148.63,125.75Z" style="fill:rgb(71,63,71);fill-rule:nonzero;"/>
            </g>
            <g transform="matrix(1,0,0,1,-17.84,-11.94)">
                <path d="M168.1,99C168.24,99.42 168.64,99.74 168.7,100.19C168.76,100.64 168.31,101.19 168.02,101.62C167.62,102.25 167.52,103.04 167.12,103.68C167.049,103.822 166.938,103.941 166.8,104.02C166.667,104.06 166.529,104.08 166.39,104.08C165.857,104.068 165.328,103.981 164.82,103.82C164.731,103.763 164.625,103.738 164.52,103.75C164.431,103.804 164.361,103.884 164.32,103.98C163.725,105.227 163.44,106.599 163.49,107.98C163.49,108.42 163.49,108.98 163.13,109.21C162.994,109.291 162.838,109.329 162.68,109.32C161.68,109.32 160.85,108.4 160.35,107.48C159.916,106.656 159.58,105.783 159.35,104.88C159.27,104.618 159.24,104.343 159.26,104.07C159.309,103.748 159.422,103.439 159.59,103.16C160.11,102.14 160.529,101.072 160.84,99.97C161.112,98.532 161.608,97.145 162.31,95.86C162.571,95.441 162.96,95.119 163.42,94.94C163.943,94.818 164.488,94.839 165,95C166.06,95.169 167.016,95.738 167.67,96.59C167.84,96.91 167.93,98.48 168.1,99Z" style="fill:rgb(252,171,154);fill-rule:nonzero;"/>
            </g>
            <g transform="matrix(1,0,0,1,-17.84,-11.94)">
                <path d="M157.84,130.34C156.944,130.489 156.026,130.441 155.15,130.2C153.864,129.937 152.547,129.862 151.24,129.98C150.463,130.163 149.703,130.414 148.97,130.73C147.51,131.16 144.86,130.8 144.89,128.87C145,122.87 147.32,117.16 149.89,111.74C150.98,109.41 152.23,106.99 154.41,105.64C155.417,105.001 156.585,104.662 157.778,104.662C160.272,104.662 162.54,106.145 163.54,108.43C164.134,109.832 164.472,111.329 164.54,112.85C164.71,114.75 164.74,116.85 163.68,118.4C163.179,119.058 162.627,119.677 162.03,120.25C160.6,121.799 159.643,123.725 159.27,125.8C158.94,127.4 160.3,129.84 157.84,130.34Z" style="fill:rgb(131,202,255);fill-rule:nonzero;"/>
            </g>
            <g transform="matrix(1,0,0,1,-17.84,-11.94)">
                <path d="M167.61,95.92C166.89,97.07 165.68,96.6 164.69,97.07C163.7,97.54 163.69,98.98 162.69,99.64C162.27,99.95 161.75,100.17 161.5,100.64C161.332,101.044 161.274,101.486 161.33,101.92C161.365,102.563 161.365,103.207 161.33,103.85C161.331,104.425 161.157,104.987 160.83,105.46C160.1,106.31 158.76,106.08 157.64,106.19C155.45,106.41 154.71,108.48 153.26,109.88C152.55,110.57 151.76,111.17 151.11,111.88C150.129,113.08 149.349,114.431 148.8,115.88C148.367,117.021 147.792,118.102 147.09,119.1C146.384,120.108 145.303,120.793 144.09,121C142.938,121.091 141.798,120.696 140.95,119.91C139.458,118.54 138.905,116.413 139.54,114.49C139.707,114.185 139.753,113.828 139.67,113.49C139.574,113.308 139.441,113.148 139.28,113.02C137.784,111.478 137.784,108.992 139.28,107.45C140.07,106.7 141.96,105.99 142.06,104.76C142.16,103.53 141.06,102.33 141.53,100.92C141.689,100.489 141.922,100.09 142.22,99.74C142.783,98.893 143.554,98.204 144.46,97.74C145.366,97.425 146.32,97.269 147.28,97.28C150.36,97.06 153.58,96.12 155.61,93.78C156.07,93.173 156.575,92.602 157.12,92.07C157.758,91.577 158.485,91.211 159.26,90.99C161.126,90.282 163.183,90.25 165.07,90.9C166.394,91.461 167.392,92.596 167.78,93.98C168.015,94.619 167.952,95.331 167.61,95.92Z" style="fill:rgb(252,104,45);fill-rule:nonzero;"/>
            </g>
            <g transform="matrix(1,0,0,1,-17.84,-11.94)">
                <path d="M178.74,102C178.134,102.053 177.605,102.439 177.37,103C177.179,103.754 177.474,104.552 178.11,105C178.741,105.423 179.465,105.687 180.22,105.77C180.439,105.838 180.678,105.805 180.87,105.68C180.968,105.57 181.034,105.435 181.06,105.29C181.241,104.777 181.316,104.233 181.28,103.69C180.941,102.601 179.876,101.892 178.74,102Z" style="fill:rgb(252,171,154);fill-rule:nonzero;"/>
            </g>
            <g transform="matrix(1,0,0,1,-17.84,-11.94)">
                <path d="M154.54,163.78C154.259,164.379 154.192,165.057 154.35,165.7C154.39,165.907 154.496,166.096 154.65,166.24C154.812,166.347 154.997,166.416 155.19,166.44C157.666,166.899 160.195,167 162.7,166.74C163.022,166.717 163.337,166.636 163.63,166.5C163.924,166.351 164.126,166.067 164.17,165.74C164.17,165.52 164.108,165.305 163.99,165.12C163.464,164.161 162.454,163.563 161.36,163.563C160.81,163.563 160.27,163.714 159.8,164C159.564,164.169 159.313,164.317 159.05,164.44C158.783,164.515 158.506,164.545 158.23,164.53C157.513,164.535 156.796,164.475 156.09,164.35C155.562,164.191 155.045,164.001 154.54,163.78Z" style="fill:rgb(71,63,71);fill-rule:nonzero;"/>
            </g>
            <g transform="matrix(1,0,0,1,-17.84,-11.94)">
                <path d="M150,109.25C149.14,109.25 149,107.87 148.31,108.41C146.303,109.968 144.439,111.701 142.74,113.59C141.56,114.95 137.65,121.73 136.85,122.82C135.599,124.281 134.66,125.983 134.09,127.82C133.919,128.347 133.94,128.917 134.15,129.43C135.15,131.43 138.38,127.6 138.96,126.66C139.4,126.98 140.06,127.26 140.42,126.85C140.92,126.29 140.16,125.45 139.92,124.93C139.636,124.238 139.614,123.466 139.86,122.76C140.182,121.92 140.656,121.147 141.26,120.48C143.926,117.251 147.236,114.615 150.98,112.74C151.52,112.47 152.13,112.15 152.29,111.57C152.357,111.283 152.333,110.982 152.22,110.71C151.868,109.802 150.973,109.214 150,109.25Z" style="fill:rgb(252,171,154);fill-rule:nonzero;"/>
            </g>
            <g transform="matrix(1,0,0,1,-17.84,-11.94)">
                <path d="M159,110.05C159,110.05 149,114.8 148.42,115.31C147.84,115.82 144.86,109.78 144.86,109.78C144.86,109.78 154.72,103.96 157.86,104.32C161,104.68 162.12,108.07 159,110.05Z" style="fill:rgb(131,202,255);fill-rule:nonzero;"/>
            </g>
            <g transform="matrix(1,0,0,1,-17.84,-11.94)">
                <path d="M195.76,82.11L195.76,81.47" style="fill:none;fill-rule:nonzero;"/>
            </g>
            <circle cx="248.96" cy="57.62" r="16.75" style="fill:rgb(248,194,68);"/>
            <circle cx="248.96" cy="57.62" r="14.28" style="fill:rgb(232,168,37);"/>
            <g transform="matrix(1,0,0,1,-17.84,-11.94)">
                <path d="M267.85,78.59L267.26,76.37C266.078,76.687 264.829,76.663 263.66,76.3L263.79,74.7C264.884,75.057 266.057,75.091 267.17,74.8C268.74,74.39 269.55,73.21 269.22,71.97C268.89,70.73 267.85,70.24 266.05,69.97C263.58,69.69 261.93,69.05 261.43,67.15C260.967,65.298 262,63.376 263.8,62.74L263.21,60.53L264.57,60.17L265.13,62.29C266.131,62.035 267.179,62.035 268.18,62.29L268,64C267.036,63.725 266.014,63.725 265.05,64C263.36,64.45 263,65.62 263.23,66.5C263.53,67.64 264.49,67.99 266.6,68.27C269.11,68.59 270.55,69.43 271.07,71.37C271.517,73.296 270.472,75.28 268.63,76L269.24,78.28L267.85,78.59Z" style="fill:rgb(248,194,68);fill-rule:nonzero;"/>
            </g>
        </g>
    </g>
    <defs>
        <linearGradient id="_Linear1" x1="0" y1="0" x2="1" y2="0" gradientUnits="userSpaceOnUse" gradientTransform="matrix(0.8,318.3,-318.3,0.8,191.25,158.09)"><stop offset="0" style="stop-color:black;stop-opacity:1"/><stop offset="0.01" style="stop-color:black;stop-opacity:1"/><stop offset="0.08" style="stop-color:black;stop-opacity:0.69"/><stop offset="0.21" style="stop-color:black;stop-opacity:0.32"/><stop offset="1" style="stop-color:black;stop-opacity:0"/></linearGradient>
        <linearGradient id="_Linear2" x1="0" y1="0" x2="1" y2="0" gradientUnits="userSpaceOnUse" gradientTransform="matrix(340.83,241.55,-241.55,340.83,153.7,76.33)"><stop offset="0" style="stop-color:black;stop-opacity:1"/><stop offset="0.01" style="stop-color:black;stop-opacity:1"/><stop offset="0.08" style="stop-color:black;stop-opacity:0.69"/><stop offset="0.21" style="stop-color:black;stop-opacity:0.32"/><stop offset="1" style="stop-color:black;stop-opacity:0"/></linearGradient>
        <linearGradient id="_Linear3" x1="0" y1="0" x2="1" y2="0" gradientUnits="userSpaceOnUse" gradientTransform="matrix(44.2819,559.452,-559.452,44.2819,166.452,58.0387)"><stop offset="0" style="stop-color:black;stop-opacity:1"/><stop offset="0.01" style="stop-color:black;stop-opacity:1"/><stop offset="0.13" style="stop-color:black;stop-opacity:0.69"/><stop offset="0.25" style="stop-color:black;stop-opacity:0.32"/><stop offset="1" style="stop-color:black;stop-opacity:0"/></linearGradient>
        <linearGradient id="_Linear4" x1="0" y1="0" x2="1" y2="0" gradientUnits="userSpaceOnUse" gradientTransform="matrix(101.2,292.01,-292.01,101.2,153.04,153.04)"><stop offset="0" style="stop-color:black;stop-opacity:1"/><stop offset="0.01" style="stop-color:black;stop-opacity:1"/><stop offset="0.08" style="stop-color:black;stop-opacity:0.69"/><stop offset="0.21" style="stop-color:black;stop-opacity:0.32"/><stop offset="1" style="stop-color:black;stop-opacity:0"/></linearGradient>
        <linearGradient id="_Linear5" x1="0" y1="0" x2="1" y2="0" gradientUnits="userSpaceOnUse" gradientTransform="matrix(247.142,461.887,-461.887,247.142,133.042,138.016)"><stop offset="0" style="stop-color:black;stop-opacity:1"/><stop offset="0.01" style="stop-color:black;stop-opacity:1"/><stop offset="0.13" style="stop-color:black;stop-opacity:0.69"/><stop offset="0.25" style="stop-color:black;stop-opacity:0.32"/><stop offset="1" style="stop-color:black;stop-opacity:0"/></linearGradient>
        <linearGradient id="_Linear6" x1="0" y1="0" x2="1" y2="0" gradientUnits="userSpaceOnUse" gradientTransform="matrix(195.798,522.469,-522.469,195.798,93.8403,73.8349)"><stop offset="0" style="stop-color:black;stop-opacity:1"/><stop offset="0.01" style="stop-color:black;stop-opacity:1"/><stop offset="0.13" style="stop-color:black;stop-opacity:0.69"/><stop offset="0.25" style="stop-color:black;stop-opacity:0.32"/><stop offset="1" style="stop-color:black;stop-opacity:0"/></linearGradient>
        <linearGradient id="_Linear7" x1="0" y1="0" x2="1" y2="0" gradientUnits="userSpaceOnUse" gradientTransform="matrix(365.987,376.751,-376.751,365.987,80.4758,163.867)"><stop offset="0" style="stop-color:black;stop-opacity:1"/><stop offset="0.01" style="stop-color:black;stop-opacity:1"/><stop offset="0.13" style="stop-color:black;stop-opacity:0.69"/><stop offset="0.25" style="stop-color:black;stop-opacity:0.32"/><stop offset="1" style="stop-color:black;stop-opacity:0"/></linearGradient>
    </defs>
</svg>
