<?xml version="1.0" encoding="UTF-8" standalone="no"?><!DOCTYPE svg PUBLIC "-//W3C//DTD SVG 1.1//EN" "http://www.w3.org/Graphics/SVG/1.1/DTD/svg11.dtd"><svg width="100%" height="100%" viewBox="0 0 233 233" version="1.1" xmlns="http://www.w3.org/2000/svg" xmlns:xlink="http://www.w3.org/1999/xlink" xml:space="preserve" xmlns:serif="http://www.serif.com/" style="fill-rule:evenodd;clip-rule:evenodd;stroke-linejoin:round;stroke-miterlimit:1.41421;"><g><path d="M104.284,160.516c-13.114,-0.075 -23.961,-26.844 -23.961,-40.477c0,-22.27 16.706,-27.145 23.144,-27.145c2.902,0 6,1.139 8.732,2.148c1.911,0.703 3.888,1.429 4.987,1.429c0.658,0 2.208,-0.618 3.577,-1.159c2.919,-1.163 6.551,-2.607 10.781,-2.607c0.008,0 0.018,0 0.026,0c3.158,0 12.735,0.693 18.493,9.34l1.348,2.027l-1.941,1.464c-2.773,2.092 -7.832,5.909 -7.832,13.469c0,8.954 5.73,12.398 8.483,14.054c1.215,0.731 2.473,1.485 2.473,3.134c0,1.076 -8.592,24.19 -21.067,24.19c-3.053,0 -5.211,-0.918 -7.114,-1.727c-1.926,-0.819 -3.587,-1.525 -6.333,-1.525c-1.391,0 -3.151,0.658 -5.014,1.356c-2.545,0.95 -5.427,2.029 -8.696,2.029l-0.086,0Z" style="fill:#82c547;fill-rule:nonzero;"/><path d="M132.866,72.406c0.325,11.715 -8.053,19.842 -16.422,19.333c-1.379,-9.35 8.368,-19.333 16.422,-19.333Z" style="fill:#82c547;fill-rule:nonzero;"/></g><path d="M117.211,0.002l0.752,0.008l0.75,0.011l0.749,0.017l0.748,0.021l0.747,0.026l0.746,0.031l0.744,0.036l0.744,0.04l0.742,0.044l0.741,0.05l0.739,0.054l0.738,0.058l0.737,0.064l0.736,0.067l0.734,0.073l0.733,0.077l0.732,0.081l0.73,0.086l0.729,0.09l0.728,0.095l0.726,0.1l0.725,0.104l0.723,0.108l0.722,0.113l0.72,0.117l0.719,0.121l0.717,0.126l0.716,0.131l0.714,0.134l0.713,0.139l0.711,0.144l0.71,0.147l0.708,0.152l0.707,0.157l0.705,0.16l0.703,0.165l0.701,0.169l0.7,0.174l0.699,0.177l0.696,0.182l0.695,0.186l0.694,0.19l0.691,0.194l0.69,0.198l0.688,0.203l0.686,0.207l0.684,0.21l0.683,0.215l0.681,0.219l0.679,0.223l0.677,0.227l0.676,0.231l0.673,0.235l0.672,0.239l0.669,0.243l0.668,0.248l0.666,0.251l0.664,0.254l0.662,0.259l0.66,0.263l0.658,0.267l0.656,0.27l0.654,0.275l0.652,0.278l0.65,0.282l0.648,0.286l0.646,0.29l0.643,0.294l0.642,0.297l0.64,0.301l0.637,0.305l0.635,0.309l0.633,0.313l0.631,0.316l0.629,0.319l0.627,0.324l0.624,0.327l0.622,0.331l0.62,0.335l0.618,0.338l0.615,0.341l0.613,0.346l0.611,0.349l0.609,0.352l0.606,0.356l0.604,0.36l0.601,0.363l0.599,0.367l0.597,0.37l0.594,0.374l0.592,0.377l0.59,0.38l0.587,0.384l0.584,0.388l0.582,0.391l0.58,0.394l0.577,0.398l0.575,0.401l0.572,0.404l0.569,0.408l0.567,0.411l0.565,0.414l0.562,0.418l0.559,0.421l0.557,0.424l0.554,0.427l0.551,0.431l0.549,0.434l0.546,0.437l0.543,0.441l0.541,0.443l0.538,0.447l0.535,0.45l0.532,0.453l0.53,0.456l0.527,0.459l0.524,0.463l0.522,0.465l0.518,0.469l0.516,0.471l0.513,0.475l0.51,0.478l0.507,0.48l0.504,0.484l0.502,0.487l0.498,0.489l0.496,0.493l0.492,0.496l0.49,0.498l0.487,0.501l0.483,0.505l0.481,0.507l0.478,0.51l0.474,0.513l0.472,0.515l0.468,0.519l0.466,0.521l0.462,0.525l0.459,0.527l0.457,0.529l0.453,0.533l0.45,0.535l0.446,0.538l0.444,0.541l0.44,0.543l0.437,0.546l0.434,0.549l0.431,0.551l0.428,0.554l0.424,0.557l0.421,0.559l0.418,0.562l0.414,0.564l0.411,0.567l0.408,0.57l0.404,0.572l0.401,0.575l0.398,0.577l0.394,0.579l0.391,0.582l0.387,0.585l0.384,0.587l0.381,0.59l0.377,0.591l0.374,0.595l0.37,0.596l0.367,0.6l0.363,0.601l0.359,0.604l0.356,0.606l0.353,0.609l0.349,0.61l0.345,0.613l0.342,0.616l0.338,0.617l0.335,0.62l0.33,0.623l0.328,0.624l0.323,0.626l0.32,0.629l0.316,0.631l0.313,0.633l0.308,0.636l0.305,0.637l0.301,0.64l0.298,0.641l0.293,0.644l0.29,0.646l0.286,0.648l0.282,0.65l0.279,0.652l0.274,0.654l0.271,0.656l0.266,0.658l0.263,0.66l0.259,0.662l0.255,0.664l0.251,0.666l0.247,0.667l0.243,0.67l0.239,0.672l0.235,0.673l0.231,0.675l0.227,0.678l0.223,0.679l0.219,0.681l0.215,0.682l0.211,0.685l0.207,0.686l0.202,0.688l0.199,0.69l0.194,0.691l0.19,0.693l0.186,0.695l0.182,0.697l0.177,0.698l0.173,0.7l0.169,0.702l0.165,0.703l0.161,0.705l0.156,0.707l0.152,0.708l0.148,0.709l0.143,0.712l0.139,0.712l0.135,0.715l0.13,0.715l0.126,0.718l0.122,0.719l0.117,0.72l0.113,0.722l0.108,0.723l0.104,0.725l0.099,0.726l0.095,0.727l0.091,0.729l0.086,0.731l0.081,0.731l0.077,0.733l0.072,0.735l0.068,0.735l0.063,0.737l0.059,0.738l0.054,0.74l0.049,0.741l0.045,0.742l0.04,0.743l0.035,0.745l0.031,0.745l0.026,0.747l0.022,0.748l0.016,0.75l0.012,0.75l0.007,0.752l0.003,0.757l-0.003,0.753l-0.007,0.752l-0.012,0.75l-0.016,0.749l-0.022,0.748l-0.026,0.747l-0.031,0.746l-0.035,0.745l-0.04,0.743l-0.045,0.742l-0.049,0.741l-0.054,0.739l-0.059,0.739l-0.063,0.737l-0.068,0.735l-0.072,0.735l-0.077,0.733l-0.081,0.731l-0.086,0.731l-0.091,0.728l-0.095,0.728l-0.099,0.726l-0.104,0.725l-0.108,0.723l-0.113,0.722l-0.117,0.72l-0.122,0.719l-0.126,0.717l-0.13,0.716l-0.135,0.715l-0.139,0.712l-0.143,0.712l-0.148,0.709l-0.152,0.708l-0.156,0.707l-0.161,0.705l-0.165,0.703l-0.169,0.702l-0.173,0.7l-0.177,0.698l-0.182,0.696l-0.186,0.695l-0.19,0.694l-0.194,0.691l-0.199,0.69l-0.202,0.688l-0.207,0.686l-0.211,0.685l-0.215,0.682l-0.219,0.681l-0.223,0.679l-0.227,0.677l-0.231,0.676l-0.235,0.673l-0.239,0.672l-0.243,0.67l-0.247,0.667l-0.251,0.666l-0.255,0.664l-0.259,0.662l-0.263,0.66l-0.266,0.658l-0.271,0.656l-0.274,0.654l-0.279,0.652l-0.282,0.65l-0.286,0.648l-0.29,0.646l-0.293,0.644l-0.298,0.641l-0.301,0.64l-0.305,0.637l-0.308,0.636l-0.313,0.633l-0.316,0.631l-0.32,0.628l-0.323,0.627l-0.328,0.624l-0.33,0.622l-0.335,0.62l-0.338,0.618l-0.342,0.615l-0.345,0.613l-0.349,0.611l-0.353,0.609l-0.356,0.606l-0.359,0.604l-0.363,0.601l-0.367,0.599l-0.37,0.597l-0.374,0.594l-0.377,0.592l-0.381,0.59l-0.384,0.587l-0.387,0.584l-0.391,0.583l-0.394,0.579l-0.398,0.577l-0.401,0.575l-0.404,0.572l-0.408,0.57l-0.411,0.567l-0.414,0.564l-0.418,0.562l-0.421,0.559l-0.424,0.557l-0.428,0.554l-0.431,0.551l-0.434,0.549l-0.437,0.546l-0.44,0.543l-0.444,0.541l-0.446,0.538l-0.45,0.535l-0.453,0.533l-0.457,0.529l-0.459,0.527l-0.462,0.524l-0.466,0.522l-0.468,0.518l-0.472,0.516l-0.474,0.513l-0.478,0.51l-0.481,0.507l-0.483,0.504l-0.487,0.502l-0.49,0.498l-0.492,0.496l-0.496,0.492l-0.498,0.49l-0.502,0.487l-0.504,0.483l-0.507,0.481l-0.51,0.478l-0.513,0.474l-0.516,0.472l-0.518,0.469l-0.522,0.465l-0.524,0.462l-0.527,0.46l-0.53,0.456l-0.532,0.453l-0.535,0.45l-0.538,0.446l-0.541,0.444l-0.543,0.44l-0.546,0.438l-0.549,0.434l-0.551,0.43l-0.554,0.428l-0.557,0.424l-0.559,0.421l-0.562,0.418l-0.565,0.414l-0.567,0.411l-0.569,0.408l-0.572,0.404l-0.575,0.401l-0.577,0.398l-0.58,0.394l-0.582,0.391l-0.584,0.388l-0.587,0.384l-0.59,0.38l-0.592,0.377l-0.594,0.374l-0.597,0.37l-0.599,0.367l-0.601,0.363l-0.604,0.36l-0.606,0.356l-0.609,0.352l-0.611,0.349l-0.613,0.345l-0.615,0.342l-0.618,0.338l-0.62,0.335l-0.622,0.331l-0.624,0.327l-0.627,0.323l-0.629,0.32l-0.631,0.316l-0.633,0.313l-0.635,0.308l-0.637,0.305l-0.64,0.302l-0.642,0.297l-0.643,0.294l-0.646,0.289l-0.648,0.286l-0.65,0.283l-0.652,0.278l-0.654,0.274l-0.656,0.271l-0.658,0.267l-0.66,0.262l-0.662,0.259l-0.664,0.255l-0.666,0.251l-0.668,0.247l-0.669,0.243l-0.672,0.239l-0.673,0.236l-0.676,0.231l-0.677,0.227l-0.679,0.223l-0.681,0.219l-0.683,0.214l-0.684,0.211l-0.686,0.207l-0.688,0.202l-0.69,0.199l-0.691,0.194l-0.694,0.19l-0.695,0.186l-0.696,0.182l-0.699,0.177l-0.7,0.174l-0.701,0.169l-0.703,0.164l-0.705,0.161l-0.707,0.156l-0.708,0.152l-0.71,0.148l-0.711,0.143l-0.713,0.139l-0.714,0.135l-0.716,0.13l-0.717,0.126l-0.719,0.122l-0.72,0.117l-0.722,0.113l-0.723,0.108l-0.725,0.104l-0.726,0.1l-0.728,0.094l-0.729,0.091l-0.73,0.086l-0.732,0.081l-0.733,0.077l-0.734,0.072l-0.736,0.068l-0.737,0.063l-0.738,0.059l-0.739,0.054l-0.741,0.049l-0.742,0.045l-0.744,0.04l-0.744,0.036l-0.746,0.03l-0.747,0.026l-0.748,0.022l-0.749,0.016l-0.75,0.012l-0.752,0.007l-0.753,0.003l-0.752,-0.003l-0.752,-0.007l-0.75,-0.012l-0.75,-0.016l-0.748,-0.022l-0.747,-0.026l-0.745,-0.03l-0.745,-0.036l-0.743,-0.04l-0.742,-0.045l-0.741,-0.049l-0.74,-0.054l-0.738,-0.059l-0.737,-0.063l-0.735,-0.068l-0.735,-0.072l-0.733,-0.077l-0.731,-0.081l-0.731,-0.086l-0.729,-0.091l-0.727,-0.094l-0.726,-0.1l-0.725,-0.104l-0.723,-0.108l-0.722,-0.113l-0.72,-0.117l-0.719,-0.122l-0.718,-0.126l-0.715,-0.13l-0.715,-0.135l-0.712,-0.139l-0.712,-0.143l-0.709,-0.148l-0.708,-0.152l-0.707,-0.156l-0.705,-0.161l-0.703,-0.164l-0.702,-0.169l-0.7,-0.174l-0.698,-0.177l-0.697,-0.182l-0.695,-0.186l-0.693,-0.19l-0.691,-0.194l-0.69,-0.199l-0.688,-0.202l-0.686,-0.207l-0.685,-0.211l-0.682,-0.214l-0.681,-0.219l-0.679,-0.223l-0.678,-0.227l-0.675,-0.231l-0.673,-0.236l-0.672,-0.239l-0.67,-0.243l-0.667,-0.247l-0.666,-0.251l-0.664,-0.255l-0.662,-0.259l-0.66,-0.262l-0.658,-0.267l-0.656,-0.271l-0.654,-0.274l-0.652,-0.278l-0.65,-0.283l-0.648,-0.286l-0.646,-0.289l-0.644,-0.294l-0.641,-0.297l-0.64,-0.302l-0.637,-0.305l-0.636,-0.308l-0.633,-0.313l-0.631,-0.316l-0.629,-0.32l-0.626,-0.323l-0.624,-0.327l-0.623,-0.331l-0.62,-0.335l-0.617,-0.338l-0.616,-0.342l-0.613,-0.345l-0.61,-0.349l-0.609,-0.352l-0.606,-0.356l-0.604,-0.36l-0.601,-0.363l-0.6,-0.367l-0.596,-0.37l-0.595,-0.374l-0.591,-0.377l-0.59,-0.38l-0.587,-0.384l-0.585,-0.388l-0.582,-0.391l-0.579,-0.394l-0.577,-0.398l-0.575,-0.401l-0.572,-0.404l-0.57,-0.408l-0.567,-0.411l-0.564,-0.414l-0.562,-0.418l-0.559,-0.421l-0.557,-0.424l-0.554,-0.428l-0.551,-0.43l-0.549,-0.434l-0.546,-0.438l-0.543,-0.44l-0.541,-0.444l-0.538,-0.446l-0.535,-0.45l-0.533,-0.453l-0.529,-0.456l-0.527,-0.46l-0.525,-0.462l-0.521,-0.465l-0.519,-0.469l-0.515,-0.472l-0.513,-0.474l-0.51,-0.478l-0.507,-0.481l-0.505,-0.483l-0.501,-0.487l-0.498,-0.49l-0.496,-0.492l-0.493,-0.496l-0.489,-0.498l-0.487,-0.502l-0.484,-0.504l-0.48,-0.507l-0.478,-0.51l-0.475,-0.513l-0.471,-0.516l-0.469,-0.518l-0.465,-0.522l-0.463,-0.524l-0.459,-0.527l-0.456,-0.529l-0.453,-0.533l-0.45,-0.535l-0.447,-0.538l-0.443,-0.541l-0.441,-0.543l-0.437,-0.546l-0.434,-0.549l-0.431,-0.551l-0.427,-0.554l-0.424,-0.557l-0.421,-0.559l-0.418,-0.562l-0.414,-0.564l-0.411,-0.567l-0.408,-0.57l-0.404,-0.572l-0.401,-0.575l-0.398,-0.577l-0.394,-0.579l-0.391,-0.583l-0.388,-0.584l-0.384,-0.587l-0.38,-0.59l-0.377,-0.592l-0.374,-0.594l-0.37,-0.597l-0.367,-0.599l-0.363,-0.601l-0.36,-0.604l-0.356,-0.606l-0.352,-0.609l-0.349,-0.611l-0.346,-0.613l-0.341,-0.615l-0.338,-0.618l-0.335,-0.62l-0.331,-0.622l-0.327,-0.624l-0.324,-0.627l-0.319,-0.628l-0.316,-0.631l-0.313,-0.633l-0.309,-0.636l-0.305,-0.637l-0.301,-0.64l-0.297,-0.641l-0.294,-0.644l-0.29,-0.646l-0.286,-0.648l-0.282,-0.65l-0.278,-0.652l-0.275,-0.654l-0.27,-0.656l-0.267,-0.658l-0.263,-0.66l-0.259,-0.662l-0.254,-0.664l-0.251,-0.666l-0.248,-0.667l-0.243,-0.67l-0.239,-0.672l-0.235,-0.673l-0.231,-0.676l-0.227,-0.677l-0.223,-0.679l-0.219,-0.681l-0.215,-0.682l-0.21,-0.685l-0.207,-0.686l-0.203,-0.688l-0.198,-0.69l-0.194,-0.691l-0.19,-0.694l-0.186,-0.695l-0.182,-0.696l-0.177,-0.698l-0.174,-0.7l-0.169,-0.702l-0.165,-0.703l-0.16,-0.705l-0.157,-0.707l-0.152,-0.708l-0.147,-0.709l-0.144,-0.712l-0.139,-0.712l-0.134,-0.715l-0.131,-0.716l-0.126,-0.717l-0.121,-0.719l-0.117,-0.72l-0.113,-0.722l-0.108,-0.723l-0.104,-0.725l-0.1,-0.726l-0.095,-0.728l-0.09,-0.728l-0.086,-0.731l-0.081,-0.731l-0.077,-0.733l-0.073,-0.735l-0.067,-0.735l-0.064,-0.737l-0.058,-0.739l-0.054,-0.739l-0.05,-0.741l-0.044,-0.742l-0.04,-0.743l-0.036,-0.745l-0.031,-0.746l-0.026,-0.747l-0.021,-0.748l-0.017,-0.749l-0.011,-0.75l-0.008,-0.752l-0.002,-0.753l0,-0.005l0.002,-0.752l0.008,-0.752l0.011,-0.75l0.017,-0.75l0.021,-0.748l0.026,-0.747l0.031,-0.745l0.036,-0.745l0.04,-0.743l0.044,-0.742l0.05,-0.741l0.054,-0.74l0.058,-0.738l0.064,-0.737l0.067,-0.735l0.073,-0.735l0.077,-0.733l0.081,-0.731l0.086,-0.731l0.09,-0.729l0.095,-0.727l0.1,-0.726l0.104,-0.725l0.108,-0.723l0.113,-0.722l0.117,-0.72l0.121,-0.719l0.126,-0.718l0.131,-0.715l0.134,-0.715l0.139,-0.712l0.144,-0.712l0.147,-0.709l0.152,-0.708l0.157,-0.707l0.16,-0.705l0.165,-0.703l0.169,-0.702l0.174,-0.7l0.177,-0.698l0.182,-0.697l0.186,-0.695l0.19,-0.693l0.194,-0.691l0.198,-0.69l0.203,-0.688l0.207,-0.686l0.21,-0.685l0.215,-0.682l0.219,-0.681l0.223,-0.679l0.227,-0.678l0.231,-0.675l0.235,-0.673l0.239,-0.672l0.243,-0.67l0.248,-0.667l0.251,-0.666l0.254,-0.664l0.259,-0.662l0.263,-0.66l0.267,-0.658l0.27,-0.656l0.275,-0.654l0.278,-0.652l0.282,-0.65l0.286,-0.648l0.29,-0.646l0.294,-0.644l0.297,-0.641l0.301,-0.64l0.305,-0.637l0.309,-0.636l0.313,-0.633l0.316,-0.631l0.319,-0.629l0.324,-0.626l0.327,-0.624l0.331,-0.623l0.335,-0.62l0.338,-0.617l0.341,-0.616l0.346,-0.613l0.349,-0.61l0.352,-0.609l0.356,-0.606l0.36,-0.604l0.363,-0.601l0.367,-0.6l0.37,-0.596l0.374,-0.595l0.377,-0.591l0.38,-0.59l0.384,-0.587l0.388,-0.585l0.391,-0.582l0.394,-0.579l0.398,-0.577l0.401,-0.575l0.404,-0.572l0.408,-0.57l0.411,-0.567l0.414,-0.564l0.418,-0.562l0.421,-0.559l0.424,-0.557l0.427,-0.554l0.431,-0.551l0.434,-0.549l0.437,-0.546l0.441,-0.543l0.443,-0.541l0.447,-0.538l0.45,-0.535l0.453,-0.533l0.456,-0.529l0.459,-0.527l0.463,-0.525l0.465,-0.521l0.469,-0.519l0.471,-0.515l0.475,-0.513l0.478,-0.51l0.48,-0.507l0.484,-0.505l0.487,-0.501l0.489,-0.498l0.493,-0.496l0.496,-0.493l0.498,-0.489l0.501,-0.487l0.505,-0.484l0.507,-0.48l0.51,-0.478l0.513,-0.475l0.515,-0.471l0.519,-0.469l0.521,-0.465l0.525,-0.463l0.527,-0.459l0.529,-0.456l0.533,-0.453l0.535,-0.45l0.538,-0.447l0.541,-0.443l0.543,-0.441l0.546,-0.437l0.549,-0.434l0.551,-0.431l0.554,-0.427l0.557,-0.424l0.559,-0.421l0.562,-0.418l0.564,-0.414l0.567,-0.411l0.57,-0.408l0.572,-0.404l0.575,-0.401l0.577,-0.398l0.579,-0.394l0.582,-0.391l0.585,-0.388l0.587,-0.384l0.59,-0.38l0.591,-0.377l0.595,-0.374l0.596,-0.37l0.6,-0.367l0.601,-0.363l0.604,-0.36l0.606,-0.356l0.609,-0.352l0.61,-0.349l0.613,-0.346l0.616,-0.341l0.617,-0.338l0.62,-0.335l0.623,-0.331l0.624,-0.327l0.626,-0.324l0.629,-0.319l0.631,-0.316l0.633,-0.313l0.636,-0.309l0.637,-0.305l0.64,-0.301l0.641,-0.297l0.644,-0.294l0.646,-0.29l0.648,-0.286l0.65,-0.282l0.652,-0.278l0.654,-0.275l0.656,-0.27l0.658,-0.267l0.66,-0.263l0.662,-0.259l0.664,-0.254l0.666,-0.251l0.667,-0.248l0.67,-0.243l0.672,-0.239l0.673,-0.235l0.675,-0.231l0.678,-0.227l0.679,-0.223l0.681,-0.219l0.682,-0.215l0.685,-0.21l0.686,-0.207l0.688,-0.203l0.69,-0.198l0.691,-0.194l0.693,-0.19l0.695,-0.186l0.697,-0.182l0.698,-0.177l0.7,-0.174l0.702,-0.169l0.703,-0.165l0.705,-0.16l0.707,-0.157l0.708,-0.152l0.709,-0.147l0.712,-0.144l0.712,-0.139l0.715,-0.134l0.715,-0.131l0.718,-0.126l0.719,-0.121l0.72,-0.117l0.722,-0.113l0.723,-0.108l0.725,-0.104l0.726,-0.1l0.727,-0.095l0.729,-0.09l0.731,-0.086l0.731,-0.081l0.733,-0.077l0.735,-0.073l0.735,-0.067l0.737,-0.064l0.738,-0.058l0.74,-0.054l0.741,-0.05l0.742,-0.044l0.743,-0.04l0.745,-0.036l0.745,-0.031l0.747,-0.026l0.748,-0.021l0.75,-0.017l0.75,-0.011l0.752,-0.008l0.752,-0.002l0.753,0.002Zm-1.453,8.334l-0.697,0.006l-0.7,0.011l-0.696,0.016l-0.695,0.02l-0.694,0.024l-0.693,0.028l-0.693,0.033l-0.689,0.037l-0.688,0.042l-0.69,0.046l-0.687,0.05l-0.684,0.054l-0.685,0.059l-0.683,0.063l-0.682,0.067l-0.681,0.072l-0.68,0.075l-0.677,0.08l-0.678,0.084l-0.677,0.088l-0.671,0.092l-0.674,0.097l-0.672,0.1l-0.668,0.105l-0.669,0.109l-0.668,0.113l-0.666,0.117l-0.662,0.12l-0.664,0.125l-0.662,0.13l-0.662,0.133l-0.658,0.137l-0.657,0.141l-0.654,0.144l-0.652,0.149l-0.656,0.154l-0.652,0.157l-0.648,0.16l-0.647,0.165l-0.647,0.169l-0.643,0.172l-0.644,0.177l-0.643,0.18l-0.639,0.184l-0.639,0.188l-0.636,0.192l-0.636,0.195l-0.634,0.2l-0.631,0.202l-0.631,0.208l-0.628,0.21l-0.626,0.214l-0.625,0.219l-0.623,0.221l-0.62,0.226l-0.621,0.23l-0.618,0.232l-0.616,0.237l-0.615,0.24l-0.61,0.243l-0.612,0.248l-0.609,0.251l-0.606,0.255l-0.607,0.259l-0.603,0.261l-0.6,0.266l-0.6,0.269l-0.598,0.272l-0.594,0.276l-0.595,0.28l-0.591,0.283l-0.59,0.286l-0.588,0.291l-0.585,0.293l-0.584,0.297l-0.582,0.3l-0.579,0.303l-0.577,0.308l-0.578,0.311l-0.572,0.313l-0.569,0.317l-0.569,0.32l-0.569,0.325l-0.565,0.328l-0.563,0.33l-0.561,0.334l-0.557,0.337l-0.558,0.341l-0.552,0.343l-0.553,0.347l-0.552,0.351l-0.544,0.352l-0.544,0.356l-0.544,0.361l-0.542,0.363l-0.537,0.366l-0.539,0.371l-0.533,0.372l-0.528,0.373l-0.531,0.38l-0.525,0.381l-0.523,0.384l-0.526,0.391l-0.518,0.39l-0.516,0.393l-0.517,0.399l-0.51,0.398l-0.51,0.404l-0.508,0.407l-0.504,0.407l-0.501,0.412l-0.503,0.418l-0.496,0.416l-0.492,0.419l-0.494,0.426l-0.49,0.427l-0.486,0.428l-0.485,0.434l-0.482,0.435l-0.478,0.437l-0.478,0.442l-0.473,0.443l-0.47,0.445l-0.468,0.45l-0.468,0.455l-0.463,0.454l-0.461,0.458l-0.456,0.458l-0.453,0.463l-0.454,0.467l-0.449,0.469l-0.448,0.471l-0.443,0.473l-0.441,0.477l-0.438,0.479l-0.434,0.48l-0.431,0.484l-0.431,0.488l-0.427,0.49l-0.424,0.492l-0.422,0.497l-0.418,0.496l-0.413,0.498l-0.414,0.504l-0.407,0.502l-0.407,0.509l-0.403,0.509l-0.4,0.513l-0.397,0.513l-0.394,0.518l-0.393,0.522l-0.386,0.519l-0.385,0.524l-0.382,0.527l-0.377,0.527l-0.376,0.532l-0.374,0.537l-0.369,0.535l-0.364,0.536l-0.366,0.544l-0.359,0.541l-0.355,0.543l-0.355,0.55l-0.351,0.551l-0.346,0.55l-0.343,0.553l-0.342,0.558l-0.336,0.558l-0.334,0.56l-0.33,0.562l-0.328,0.566l-0.324,0.568l-0.321,0.569l-0.317,0.57l-0.313,0.573l-0.311,0.576l-0.307,0.578l-0.304,0.58l-0.301,0.582l-0.297,0.583l-0.292,0.584l-0.29,0.588l-0.287,0.591l-0.283,0.592l-0.28,0.595l-0.276,0.594l-0.271,0.595l-0.27,0.602l-0.266,0.602l-0.261,0.601l-0.258,0.604l-0.256,0.61l-0.251,0.607l-0.246,0.609l-0.245,0.615l-0.24,0.614l-0.236,0.616l-0.234,0.62l-0.23,0.62l-0.224,0.618l-0.222,0.622l-0.218,0.626l-0.214,0.627l-0.212,0.632l-0.206,0.626l-0.203,0.634l-0.201,0.633l-0.194,0.632l-0.192,0.639l-0.188,0.639l-0.185,0.642l-0.179,0.639l-0.176,0.64l-0.173,0.647l-0.169,0.649l-0.165,0.647l-0.16,0.647l-0.157,0.654l-0.153,0.651l-0.149,0.653l-0.146,0.659l-0.141,0.656l-0.137,0.658l-0.133,0.66l-0.129,0.661l-0.125,0.663l-0.12,0.664l-0.117,0.666l-0.113,0.667l-0.109,0.67l-0.105,0.67l-0.1,0.668l-0.096,0.674l-0.093,0.675l-0.088,0.677l-0.085,0.678l-0.079,0.676l-0.075,0.677l-0.071,0.679l-0.068,0.687l-0.063,0.682l-0.058,0.683l-0.055,0.688l-0.05,0.685l-0.046,0.687l-0.041,0.689l-0.037,0.694l-0.034,0.691l-0.028,0.692l-0.024,0.698l-0.021,0.691l-0.014,0.696l-0.012,0.702l-0.007,0.695l-0.002,0.703l0.002,0.703l0.007,0.695l0.012,0.701l0.014,0.697l0.021,0.691l0.024,0.697l0.028,0.693l0.034,0.691l0.037,0.694l0.041,0.688l0.046,0.687l0.05,0.686l0.055,0.688l0.058,0.683l0.063,0.682l0.068,0.688l0.071,0.678l0.075,0.677l0.079,0.676l0.085,0.678l0.088,0.677l0.093,0.675l0.096,0.673l0.1,0.668l0.105,0.671l0.109,0.67l0.113,0.667l0.117,0.666l0.121,0.664l0.124,0.663l0.129,0.661l0.133,0.659l0.137,0.659l0.141,0.656l0.146,0.659l0.149,0.652l0.153,0.652l0.157,0.654l0.16,0.648l0.165,0.646l0.169,0.649l0.173,0.646l0.176,0.641l0.179,0.639l0.185,0.642l0.188,0.64l0.192,0.637l0.195,0.633l0.2,0.634l0.202,0.632l0.207,0.627l0.212,0.633l0.214,0.626l0.218,0.625l0.222,0.624l0.224,0.617l0.229,0.619l0.235,0.621l0.236,0.615l0.24,0.614l0.245,0.616l0.246,0.608l0.251,0.608l0.256,0.61l0.258,0.604l0.261,0.601l0.266,0.603l0.27,0.601l0.271,0.595l0.276,0.594l0.279,0.594l0.284,0.593l0.287,0.591l0.29,0.588l0.292,0.584l0.298,0.584l0.3,0.581l0.304,0.58l0.307,0.578l0.31,0.575l0.314,0.573l0.318,0.572l0.32,0.568l0.324,0.567l0.328,0.567l0.33,0.561l0.334,0.561l0.336,0.558l0.342,0.558l0.343,0.553l0.346,0.55l0.351,0.551l0.355,0.549l0.355,0.543l0.359,0.542l0.366,0.544l0.364,0.536l0.369,0.535l0.374,0.537l0.376,0.532l0.377,0.526l0.382,0.527l0.385,0.525l0.386,0.518l0.393,0.523l0.394,0.517l0.397,0.514l0.4,0.513l0.403,0.509l0.407,0.508l0.407,0.503l0.414,0.504l0.414,0.499l0.418,0.496l0.421,0.495l0.423,0.491l0.428,0.492l0.431,0.488l0.431,0.484l0.434,0.479l0.438,0.48l0.441,0.477l0.443,0.473l0.449,0.472l0.448,0.468l0.453,0.466l0.454,0.464l0.456,0.458l0.461,0.458l0.464,0.455l0.468,0.455l0.466,0.448l0.47,0.444l0.474,0.444l0.478,0.443l0.478,0.437l0.482,0.435l0.486,0.434l0.487,0.429l0.487,0.425l0.494,0.425l0.493,0.421l0.497,0.417l0.502,0.417l0.5,0.41l0.506,0.41l0.507,0.406l0.51,0.404l0.51,0.398l0.516,0.397l0.518,0.396l0.517,0.389l0.524,0.389l0.525,0.386l0.527,0.381l0.529,0.38l0.528,0.373l0.533,0.372l0.539,0.371l0.539,0.367l0.538,0.361l0.544,0.36l0.546,0.358l0.544,0.351l0.552,0.351l0.553,0.348l0.554,0.344l0.556,0.34l0.557,0.337l0.561,0.334l0.563,0.33l0.565,0.328l0.567,0.323l0.571,0.322l0.569,0.316l0.572,0.313l0.58,0.313l0.577,0.308l0.577,0.302l0.58,0.299l0.585,0.297l0.586,0.294l0.59,0.291l0.59,0.287l0.588,0.281l0.594,0.28l0.596,0.276l0.598,0.273l0.6,0.269l0.602,0.266l0.601,0.261l0.605,0.258l0.608,0.255l0.609,0.252l0.612,0.248l0.61,0.243l0.615,0.24l0.616,0.237l0.618,0.232l0.621,0.23l0.62,0.225l0.623,0.222l0.625,0.218l0.627,0.215l0.627,0.21l0.63,0.207l0.632,0.203l0.634,0.199l0.636,0.196l0.638,0.192l0.637,0.188l0.639,0.184l0.643,0.18l0.642,0.177l0.645,0.172l0.647,0.169l0.647,0.164l0.65,0.161l0.652,0.158l0.652,0.152l0.652,0.149l0.656,0.145l0.659,0.141l0.658,0.137l0.66,0.133l0.66,0.129l0.664,0.125l0.664,0.121l0.666,0.117l0.668,0.113l0.669,0.109l0.668,0.104l0.672,0.101l0.674,0.097l0.673,0.092l0.675,0.088l0.676,0.084l0.679,0.079l0.68,0.076l0.681,0.071l0.682,0.068l0.683,0.063l0.685,0.058l0.684,0.055l0.687,0.05l0.69,0.046l0.688,0.041l0.689,0.037l0.693,0.033l0.693,0.029l0.694,0.024l0.697,0.02l0.694,0.016l0.698,0.01l0.701,0.007l0.699,0.003l0.698,-0.003l0.7,-0.007l0.698,-0.01l0.695,-0.016l0.696,-0.02l0.694,-0.024l0.693,-0.029l0.693,-0.033l0.69,-0.037l0.688,-0.041l0.689,-0.046l0.688,-0.05l0.684,-0.055l0.685,-0.058l0.684,-0.063l0.682,-0.068l0.68,-0.071l0.679,-0.076l0.68,-0.08l0.676,-0.083l0.674,-0.088l0.674,-0.092l0.673,-0.097l0.673,-0.101l0.668,-0.104l0.669,-0.109l0.668,-0.113l0.665,-0.117l0.665,-0.121l0.662,-0.125l0.662,-0.129l0.661,-0.133l0.656,-0.136l0.658,-0.142l0.657,-0.145l0.654,-0.149l0.651,-0.152l0.651,-0.158l0.651,-0.161l0.649,-0.165l0.645,-0.168l0.645,-0.172l0.644,-0.177l0.64,-0.18l0.64,-0.184l0.638,-0.188l0.637,-0.192l0.637,-0.196l0.632,-0.198l0.632,-0.204l0.63,-0.207l0.627,-0.21l0.627,-0.215l0.625,-0.218l0.624,-0.222l0.621,-0.225l0.621,-0.23l0.615,-0.232l0.618,-0.237l0.616,-0.241l0.611,-0.243l0.609,-0.247l0.609,-0.252l0.609,-0.255l0.603,-0.257l0.602,-0.262l0.604,-0.267l0.6,-0.268l0.596,-0.273l0.597,-0.276l0.592,-0.279l0.591,-0.283l0.591,-0.287l0.586,-0.289l0.586,-0.294l0.586,-0.298l0.581,-0.299l0.578,-0.303l0.576,-0.307l0.577,-0.312l0.574,-0.314l0.572,-0.317l0.571,-0.322l0.565,-0.322l0.563,-0.327l0.563,-0.33l0.562,-0.335l0.558,-0.337l0.556,-0.34l0.556,-0.345l0.551,-0.347l0.549,-0.349l0.547,-0.353l0.545,-0.358l0.544,-0.36l0.541,-0.363l0.537,-0.365l0.536,-0.37l0.535,-0.373l0.529,-0.373l0.529,-0.38l0.529,-0.383l0.525,-0.385l0.52,-0.387l0.518,-0.39l0.519,-0.396l0.513,-0.395l0.512,-0.4l0.51,-0.404l0.507,-0.406l0.508,-0.412l0.501,-0.41l0.498,-0.413l0.498,-0.419l0.494,-0.421l0.491,-0.423l0.49,-0.427l0.488,-0.431l0.486,-0.432l0.48,-0.435l0.479,-0.437l0.475,-0.44l0.477,-0.447l0.471,-0.446l0.465,-0.446l0.466,-0.453l0.465,-0.457l0.461,-0.458l0.456,-0.458l0.455,-0.464l0.455,-0.468l0.447,-0.466l0.445,-0.47l0.445,-0.475l0.441,-0.477l0.439,-0.48l0.434,-0.479l0.433,-0.487l0.431,-0.488l0.424,-0.486l0.425,-0.494l0.422,-0.495l0.417,-0.496l0.414,-0.499l0.411,-0.502l0.412,-0.507l0.405,-0.506l0.403,-0.509l0.4,-0.513l0.396,-0.514l0.395,-0.517l0.391,-0.52l0.387,-0.521l0.385,-0.525l0.383,-0.527l0.379,-0.529l0.376,-0.532l0.371,-0.531l0.37,-0.538l0.367,-0.539l0.361,-0.538l0.361,-0.545l0.355,-0.543l0.352,-0.546l0.354,-0.554l0.346,-0.55l0.342,-0.553l0.342,-0.558l0.337,-0.558l0.334,-0.561l0.331,-0.564l0.328,-0.564l0.321,-0.563l0.322,-0.572l0.317,-0.572l0.314,-0.573l0.312,-0.578l0.306,-0.575l0.304,-0.58l0.3,-0.581l0.295,-0.581l0.296,-0.591l0.291,-0.588l0.285,-0.587l0.282,-0.59l0.279,-0.593l0.277,-0.598l0.274,-0.599l0.268,-0.597l0.264,-0.6l0.263,-0.604l0.259,-0.608l0.255,-0.606l0.25,-0.608l0.249,-0.612l0.242,-0.608l0.241,-0.618l0.238,-0.619l0.232,-0.614l0.228,-0.618l0.226,-0.621l0.221,-0.624l0.22,-0.628l0.214,-0.627l0.21,-0.625l0.207,-0.631l0.204,-0.632l0.198,-0.63l0.195,-0.637l0.194,-0.641l0.187,-0.636l0.183,-0.638l0.181,-0.643l0.177,-0.645l0.172,-0.642l0.168,-0.645l0.165,-0.65l0.161,-0.652l0.158,-0.65l0.152,-0.652l0.149,-0.653l0.144,-0.654l0.142,-0.66l0.137,-0.659l0.133,-0.659l0.129,-0.661l0.125,-0.663l0.121,-0.664l0.117,-0.666l0.113,-0.667l0.108,-0.67l0.105,-0.671l0.101,-0.672l0.096,-0.669l0.092,-0.675l0.089,-0.677l0.083,-0.674l0.08,-0.68l0.076,-0.677l0.071,-0.682l0.068,-0.684l0.063,-0.682l0.058,-0.683l0.054,-0.684l0.05,-0.69l0.047,-0.691l0.041,-0.688l0.037,-0.686l0.033,-0.695l0.029,-0.693l0.024,-0.693l0.02,-0.699l0.016,-0.693l0.01,-0.697l0.007,-0.699l0.002,-0.703l-0.002,-0.703l-0.007,-0.699l-0.01,-0.698l-0.016,-0.692l-0.02,-0.699l-0.024,-0.694l-0.029,-0.692l-0.033,-0.695l-0.037,-0.686l-0.041,-0.688l-0.047,-0.692l-0.05,-0.689l-0.054,-0.684l-0.058,-0.683l-0.063,-0.682l-0.068,-0.683l-0.071,-0.683l-0.076,-0.677l-0.08,-0.68l-0.083,-0.674l-0.089,-0.677l-0.092,-0.675l-0.096,-0.67l-0.101,-0.672l-0.104,-0.67l-0.109,-0.67l-0.113,-0.667l-0.117,-0.666l-0.121,-0.664l-0.125,-0.663l-0.129,-0.661l-0.133,-0.66l-0.137,-0.658l-0.142,-0.66l-0.144,-0.655l-0.149,-0.653l-0.152,-0.651l-0.158,-0.65l-0.161,-0.651l-0.165,-0.651l-0.168,-0.645l-0.172,-0.643l-0.177,-0.644l-0.181,-0.643l-0.183,-0.638l-0.187,-0.636l-0.194,-0.642l-0.195,-0.635l-0.198,-0.63l-0.204,-0.634l-0.207,-0.63l-0.209,-0.625l-0.215,-0.626l-0.22,-0.63l-0.221,-0.622l-0.226,-0.622l-0.229,-0.619l-0.231,-0.614l-0.238,-0.619l-0.241,-0.617l-0.242,-0.608l-0.249,-0.613l-0.25,-0.607l-0.255,-0.606l-0.259,-0.608l-0.263,-0.604l-0.264,-0.599l-0.268,-0.598l-0.274,-0.599l-0.277,-0.598l-0.279,-0.594l-0.282,-0.589l-0.285,-0.587l-0.291,-0.589l-0.296,-0.59l-0.294,-0.58l-0.301,-0.582l-0.304,-0.58l-0.306,-0.575l-0.312,-0.579l-0.314,-0.573l-0.317,-0.57l-0.322,-0.573l-0.322,-0.564l-0.327,-0.563l-0.331,-0.565l-0.334,-0.56l-0.337,-0.558l-0.342,-0.558l-0.342,-0.553l-0.346,-0.55l-0.354,-0.554l-0.352,-0.547l-0.355,-0.543l-0.361,-0.544l-0.361,-0.539l-0.367,-0.538l-0.37,-0.538l-0.371,-0.531l-0.376,-0.532l-0.379,-0.53l-0.383,-0.527l-0.385,-0.524l-0.387,-0.522l-0.391,-0.519l-0.395,-0.518l-0.396,-0.513l-0.4,-0.513l-0.403,-0.509l-0.405,-0.506l-0.412,-0.508l-0.411,-0.501l-0.413,-0.498l-0.417,-0.496l-0.424,-0.497l-0.425,-0.494l-0.423,-0.485l-0.431,-0.489l-0.433,-0.486l-0.434,-0.48l-0.439,-0.479l-0.441,-0.477l-0.445,-0.475l-0.444,-0.469l-0.448,-0.467l-0.456,-0.469l-0.454,-0.463l-0.456,-0.458l-0.461,-0.458l-0.464,-0.457l-0.466,-0.452l-0.467,-0.448l-0.471,-0.447l-0.476,-0.445l-0.475,-0.44l-0.479,-0.437l-0.48,-0.435l-0.485,-0.432l-0.488,-0.43l-0.492,-0.429l-0.491,-0.424l-0.493,-0.419l-0.497,-0.418l-0.499,-0.414l-0.502,-0.412l-0.505,-0.409l-0.509,-0.407l-0.51,-0.404l-0.512,-0.4l-0.514,-0.397l-0.516,-0.393l-0.52,-0.391l-0.521,-0.388l-0.524,-0.384l-0.528,-0.383l-0.53,-0.38l-0.529,-0.373l-0.535,-0.373l-0.536,-0.37l-0.536,-0.364l-0.543,-0.365l-0.544,-0.361l-0.544,-0.356l-0.547,-0.353l-0.549,-0.35l-0.551,-0.346l-0.555,-0.344l-0.557,-0.341l-0.558,-0.337l-0.562,-0.335l-0.563,-0.331l-0.563,-0.326l-0.567,-0.324l-0.569,-0.32l-0.572,-0.318l-0.574,-0.314l-0.575,-0.31l-0.576,-0.307l-0.58,-0.304l-0.583,-0.3l-0.586,-0.298l-0.584,-0.293l-0.585,-0.289l-0.59,-0.287l-0.594,-0.284l-0.593,-0.279l-0.595,-0.276l-0.596,-0.272l-0.6,-0.269l-0.602,-0.266l-0.604,-0.262l-0.605,-0.258l-0.607,-0.255l-0.609,-0.251l-0.609,-0.247l-0.611,-0.243l-0.616,-0.241l-0.618,-0.237l-0.615,-0.232l-0.621,-0.23l-0.621,-0.226l-0.624,-0.221l-0.625,-0.219l-0.625,-0.214l-0.629,-0.21l-0.632,-0.208l-0.63,-0.203l-0.632,-0.198l-0.637,-0.196l-0.635,-0.192l-0.64,-0.188l-0.64,-0.185l-0.64,-0.179l-0.646,-0.177l-0.643,-0.173l-0.645,-0.168l-0.649,-0.165l-0.649,-0.16l-0.651,-0.157l-0.655,-0.153l-0.654,-0.15l-0.655,-0.144l-0.656,-0.141l-0.656,-0.137l-0.663,-0.133l-0.664,-0.13l-0.662,-0.125l-0.663,-0.12l-0.665,-0.117l-0.668,-0.113l-0.669,-0.109l-0.668,-0.105l-0.673,-0.1l-0.673,-0.097l-0.672,-0.092l-0.676,-0.088l-0.678,-0.084l-0.678,-0.08l-0.679,-0.075l-0.68,-0.072l-0.682,-0.067l-0.684,-0.063l-0.685,-0.059l-0.684,-0.054l-0.688,-0.05l-0.689,-0.046l-0.688,-0.042l-0.69,-0.037l-0.693,-0.033l-0.693,-0.028l-0.694,-0.024l-0.694,-0.02l-0.697,-0.016l-0.7,-0.011l-0.696,-0.006l-0.7,-0.002l-0.701,0.002Z" style="fill:#82c547;"/></svg>