<?xml version="1.0" encoding="UTF-8" standalone="no"?><!DOCTYPE svg PUBLIC "-//W3C//DTD SVG 1.1//EN" "http://www.w3.org/Graphics/SVG/1.1/DTD/svg11.dtd"><svg width="100%" height="100%" viewBox="0 0 85 85" version="1.1" xmlns="http://www.w3.org/2000/svg" xmlns:xlink="http://www.w3.org/1999/xlink" xml:space="preserve" xmlns:serif="http://www.serif.com/" style="fill-rule:evenodd;clip-rule:evenodd;stroke-linejoin:round;stroke-miterlimit:1.41421;"><g><circle cx="42.133" cy="42.133" r="42.133" style="fill:#82c547;"/><g><path id="XMLID_1279_" d="M42.133,24.263c0.717,0 1.3,0.489 1.3,1.089c0,0.545 0.442,0.987 0.987,0.987c0.545,0 0.987,-0.442 0.987,-0.987c0,-1.367 -0.962,-2.528 -2.287,-2.92l0,-0.137c0,-0.545 -0.442,-0.987 -0.987,-0.987c-0.545,0 -0.987,0.442 -0.987,0.987l0,0.137c-1.324,0.392 -2.286,1.553 -2.286,2.92c0,1.688 1.468,3.062 3.273,3.062c0.717,0 1.3,0.488 1.3,1.088c0,0.6 -0.583,1.089 -1.3,1.089c-0.716,0 -1.299,-0.489 -1.299,-1.089c0,-0.545 -0.442,-0.987 -0.987,-0.987c-0.546,0 -0.987,0.442 -0.987,0.987c0,1.367 0.962,2.527 2.286,2.92l0,0.137c0,0.545 0.442,0.987 0.987,0.987c0.545,0 0.987,-0.442 0.987,-0.987l0,-0.137c1.325,-0.392 2.287,-1.553 2.287,-2.92c0,-1.688 -1.469,-3.062 -3.274,-3.062c-0.716,0 -1.299,-0.488 -1.299,-1.088c0,-0.6 0.583,-1.089 1.299,-1.089Z" style="fill:#fff;fill-rule:nonzero;"/><path id="XMLID_1303_" d="M61.084,43.933l-4.511,0c-5.843,0 -10.597,4.754 -10.597,10.597l0,4.102l-2.856,2.855l0,-23.546c5.362,-0.499 9.574,-5.024 9.574,-10.514c0,-1.137 -0.18,-2.256 -0.534,-3.326c-0.172,-0.518 -0.731,-0.798 -1.248,-0.626c-0.517,0.171 -0.798,0.73 -0.626,1.247c0.288,0.869 0.434,1.78 0.434,2.705c0,4.735 -3.852,8.587 -8.587,8.587c-4.735,0 -8.587,-3.852 -8.587,-8.587c0,-4.735 3.852,-8.587 8.587,-8.587c0.872,0 1.731,0.13 2.554,0.386c0.52,0.162 1.074,-0.129 1.236,-0.649c0.162,-0.521 -0.129,-1.074 -0.649,-1.236c-1.014,-0.315 -2.07,-0.475 -3.141,-0.475c-5.823,0 -10.561,4.738 -10.561,10.561c0,5.49 4.212,10.015 9.574,10.514l0,15.036l-2.855,-2.856l0,-4.102c0,-5.843 -4.754,-10.597 -10.597,-10.597l-4.511,0c-0.545,0 -0.987,0.442 -0.987,0.987l0,4.511c0,5.843 4.754,10.597 10.597,10.597l4.102,0l4.251,4.251l0,9.659l-9.886,0c-0.545,0 -0.987,0.442 -0.987,0.987c0,0.545 0.442,0.987 0.987,0.987l21.746,0c0.545,0 0.987,-0.442 0.987,-0.987c0,-0.545 -0.442,-0.987 -0.987,-0.987l-9.886,0l0,-1.148l4.252,-4.251l4.102,0c5.843,0 10.597,-4.754 10.597,-10.597l0,-4.511c0,-0.545 -0.442,-0.987 -0.987,-0.987Zm-28.291,5.61c-4.755,0 -8.623,-3.868 -8.623,-8.623l0,-3.524l3.524,0c4.755,0 8.623,3.868 8.623,8.623l0,2.128l-4.359,-4.358c-0.385,-0.386 -1.01,-0.386 -1.396,0c-0.385,0.385 -0.385,1.01 0,1.395l4.359,4.359l-2.128,0Zm27.304,-0.112c0,4.754 -3.869,8.623 -8.623,8.623l-2.128,0l4.358,-4.359c0.386,-0.385 0.386,-1.01 0,-1.396c-0.385,-0.385 -1.01,-0.385 -1.396,0l-4.358,4.359l0,-2.128c0,-4.755 3.868,-8.623 8.623,-8.623l3.524,0l0,3.524Z" style="fill:#fff;fill-rule:nonzero;"/><path id="XMLID_1306_" d="M48.882,21.623c0.26,0 0.515,-0.105 0.698,-0.289c0.184,-0.183 0.289,-0.438 0.289,-0.698c0,-0.259 -0.105,-0.514 -0.289,-0.697c-0.183,-0.184 -0.438,-0.29 -0.698,-0.29c-0.259,0 -0.514,0.106 -0.697,0.29c-0.184,0.183 -0.29,0.438 -0.29,0.697c0,0.26 0.106,0.515 0.29,0.698c0.183,0.184 0.438,0.289 0.697,0.289Z" style="fill:#fff;fill-rule:nonzero;"/></g></g></svg>